<svg width="41" height="39" viewBox="0 0 41 39" fill="none" xmlns="http://www.w3.org/2000/svg">
<path d="M39.4778 15.2701C39.1448 14.7529 38.8665 14.2031 38.6475 13.6295C38.4565 13.0401 38.3371 12.4304 38.2917 11.8131C38.2657 10.3195 37.8283 8.86105 37.0265 7.5945C36.046 6.44599 34.7683 5.58196 33.3298 5.09456C32.7427 4.87071 32.1798 4.58937 31.6495 4.25473C31.1894 3.86348 30.7659 3.43206 30.3843 2.9657C29.4761 1.7475 28.2446 0.801177 26.8259 0.231391C25.3895 -0.103942 23.8888 -0.0567659 22.4769 0.368107C21.2157 0.660928 19.9029 0.660928 18.6418 0.368107C17.2052 -0.0709352 15.6751 -0.118173 14.2136 0.231391C12.7805 0.794959 11.5347 1.74178 10.6157 2.9657C10.2215 3.4338 9.78479 3.86528 9.31099 4.25473C8.78065 4.58937 8.21773 4.87071 7.63066 5.09456C6.18496 5.57882 4.90012 6.44308 3.91417 7.5945C3.13322 8.86699 2.71644 10.325 2.70829 11.8131C2.66292 12.4304 2.54347 13.0401 2.35246 13.6295C2.13101 14.1896 1.85284 14.7262 1.52218 15.231C0.630872 16.4864 0.104449 17.9588 0 19.4887C0.111517 21.0052 0.637619 22.4632 1.52218 23.7074C1.86045 24.2079 2.13906 24.7453 2.35246 25.3089C2.52446 25.9138 2.62398 26.5365 2.64899 27.1643C2.67299 28.6583 3.11054 30.1173 3.91417 31.383C4.89469 32.5315 6.17235 33.3955 7.6109 33.8829C8.19797 34.1068 8.76088 34.3881 9.29122 34.7228C9.76502 35.1122 10.2018 35.5437 10.5959 36.0118C11.4981 37.2358 12.7314 38.1836 14.1543 38.7461C14.7118 38.9138 15.2914 38.9993 15.8742 39C16.7669 38.9719 17.6545 38.8541 18.5231 38.6484C19.7821 38.3375 21.0992 38.3375 22.3582 38.6484C23.7983 39.0707 25.3255 39.1111 26.7864 38.7656C28.2093 38.2031 29.4426 37.2554 30.3447 36.0313C30.7389 35.5632 31.1757 35.1317 31.6495 34.7423C32.1798 34.4077 32.7427 34.1263 33.3298 33.9025C34.7683 33.4151 36.046 32.551 37.0265 31.4025C37.8302 30.1368 38.2677 28.6778 38.2917 27.1839C38.3167 26.5561 38.4162 25.9333 38.5882 25.3284C38.8097 24.7683 39.0879 24.2318 39.4185 23.7269C40.3275 22.4834 40.8745 21.0177 41 19.4887C40.8885 17.9723 40.3624 16.5143 39.4778 15.2701ZM29.811 16.9693L19.9267 26.7347C19.7429 26.9177 19.5243 27.063 19.2834 27.1622C19.0425 27.2613 18.7841 27.3124 18.5231 27.3124C18.2622 27.3124 18.0038 27.2613 17.7629 27.1622C17.522 27.063 17.3033 26.9177 17.1196 26.7347L11.189 20.8754C11.0047 20.6933 10.8585 20.4771 10.7587 20.2392C10.659 20.0013 10.6076 19.7463 10.6076 19.4887C10.6076 18.9686 10.8168 18.4698 11.189 18.1021C11.5613 17.7343 12.0661 17.5277 12.5926 17.5277C13.119 17.5277 13.6239 17.7343 13.9961 18.1021L18.5231 22.5941L27.0039 14.1959C27.3761 13.8281 27.881 13.6215 28.4074 13.6215C28.9339 13.6215 29.4387 13.8281 29.811 14.1959C30.1832 14.5637 30.3924 15.0625 30.3924 15.5826C30.3924 16.1027 30.1832 16.6015 29.811 16.9693Z" fill="#231F20"/>
</svg>
