<svg width="36" height="32" viewBox="0 0 36 32" fill="none" xmlns="http://www.w3.org/2000/svg">
<path d="M23.6874 14.25C25.3787 14.25 26.7499 12.8789 26.7499 11.1875V3.3125C26.7499 1.62113 25.3787 0.25 23.6874 0.25H3.56237C1.871 0.25 0.499868 1.62113 0.499868 3.3125V11.1875C0.499868 12.8789 1.871 14.25 3.56237 14.25H23.6874ZM33.7503 10.927L33.7499 1.5625C33.7499 0.837626 33.1623 0.25 32.4374 0.25C31.7729 0.25 31.2238 0.743769 31.1369 1.3844L31.1249 1.5625L31.1242 10.9045C31.5307 10.8036 31.9559 10.75 32.3937 10.75C32.8628 10.75 33.3176 10.8115 33.7503 10.927ZM23.6874 11.625H3.56237C3.32074 11.625 3.12487 11.4291 3.12487 11.1875V3.3125C3.12487 3.07088 3.32074 2.875 3.56237 2.875H23.6874C23.929 2.875 24.1249 3.07088 24.1249 3.3125V11.1875C24.1249 11.4291 23.929 11.625 23.6874 11.625ZM32.437 19.3391C34.2812 19.3391 35.7761 17.8441 35.7761 16C35.7761 14.1559 34.2812 12.6609 32.437 12.6609C30.5929 12.6609 29.0979 14.1559 29.0979 16C29.0979 17.8441 30.5929 19.3391 32.437 19.3391ZM23.6797 31.75C25.3711 31.75 26.7422 30.3789 26.7422 28.6875V20.8125C26.7422 19.1211 25.3711 17.75 23.6797 17.75H3.55469C1.86332 17.75 0.492188 19.1211 0.492188 20.8125V28.6875C0.492188 30.2943 1.72963 31.6121 3.30351 31.7398L3.55469 31.75H23.6797ZM23.6797 29.125H3.55469L3.45437 29.1134C3.2611 29.0681 3.11719 28.8946 3.11719 28.6875V20.8125C3.11719 20.5709 3.31306 20.375 3.55469 20.375H23.6797C23.9213 20.375 24.1172 20.5709 24.1172 20.8125V28.6875C24.1172 28.9291 23.9213 29.125 23.6797 29.125ZM32.4374 31.75C33.1019 31.75 33.651 31.2562 33.7379 30.6156L33.7499 30.4375L33.7503 21.073C33.3176 21.1885 32.8628 21.25 32.3937 21.25C31.9559 21.25 31.5307 21.1964 31.1242 21.0955L31.1249 30.4375C31.1249 31.1624 31.7125 31.75 32.4374 31.75Z" fill="#212121"/>
</svg>
