<svg width="21" height="28" viewBox="0 0 21 28" fill="none" xmlns="http://www.w3.org/2000/svg">
<path d="M0.111173 3.46468C1.65509 4.12242 2.88705 5.34899 3.55197 6.89042C4.19736 8.2677 4.52053 9.77402 4.49694 11.295C4.44692 13.4305 4.23013 15.566 4.09116 17.7015C4.09116 17.8517 4.09116 18.0019 4.09116 18.2021H7.72651C7.72651 16.8173 7.76543 15.4548 7.72651 14.0978C7.64314 11.7454 7.51529 9.393 7.38744 7.04614C7.23735 4.30999 8.24347 2.04099 10.0834 0C11.5564 1.58496 12.6014 3.36457 12.7182 5.50566C12.8127 7.25747 12.6681 9.02595 12.6126 10.7833C12.5514 12.9467 12.4569 15.11 12.3958 17.2733C12.368 18.2521 12.3958 18.2577 13.4074 18.2577H16.1034C16.0534 17.7015 15.9978 17.24 15.9644 16.7561C15.8533 15.0544 15.6865 13.3526 15.6643 11.6509C15.5838 9.70771 16.0498 7.78094 17.0094 6.0896C17.7155 4.89912 18.7854 3.9672 20.0611 3.43131V22.6733H19.3941C17.3096 22.6733 15.2196 22.6733 13.1295 22.6733C12.9524 22.6472 12.7721 22.6904 12.6261 22.794C12.48 22.8976 12.3796 23.0536 12.3457 23.2295C11.8115 24.6188 11.0362 25.9028 10.0556 27.0222C9.10251 25.9656 8.34913 24.7445 7.83213 23.4185C7.77972 23.1728 7.63538 22.9565 7.42869 22.8138C7.222 22.6711 6.9686 22.6129 6.7204 22.6511C4.6915 22.7011 2.65703 22.6511 0.605892 22.6511C0.183435 22.6511 0 22.5621 0 22.095C0.0333519 16.048 0.0500279 9.99547 0.0500279 3.93738C0.0500279 3.80391 0.0889385 3.676 0.111173 3.46468Z" fill="#F39200"/>
</svg>
