<svg width="101" height="68" viewBox="0 0 101 68" fill="none" xmlns="http://www.w3.org/2000/svg">
<mask id="mask0_39_258" style="mask-type:luminance" maskUnits="userSpaceOnUse" x="0" y="0" width="101" height="68">
<path d="M64.7356 54.7952C64.1112 55.6374 63.3883 55.3401 62.7475 54.8942C62.4412 54.6732 62.0817 54.5384 61.7063 54.5035C61.3308 54.4687 60.9529 54.5352 60.6115 54.6961C60.0026 54.871 59.3636 54.9129 58.7372 54.8189C58.1109 54.7249 57.5119 54.4972 56.9804 54.1511C56.4382 53.8869 55.8303 53.7548 55.3374 53.5401C55.0416 53.4245 54.7623 53.2593 54.4666 53.1107L55.2224 52.5162C55.3164 52.4625 55.4154 52.4182 55.5181 52.3841C54.8937 51.9382 53.8751 52.1198 53.5793 51.0629C53.0371 50.551 52.3799 50.9473 51.7391 50.9803C51.058 50.8898 50.3652 50.9869 49.7346 51.2611C49.6031 51.3437 49.4224 51.5583 49.4553 51.6574C49.5237 51.9603 49.5238 52.2747 49.4555 52.5776C49.3873 52.8805 49.2525 53.1642 49.0609 53.408C48.8474 53.7217 48.7159 54.085 48.5352 54.4153C48.3544 54.7456 48.1737 54.7952 47.8615 54.5309C47.5165 54.2894 47.1541 54.0741 46.7771 53.8869C46.7771 54.052 46.7771 54.085 46.8593 54.085C47.6644 54.7456 47.6808 54.9108 47.2207 55.8686C46.9046 56.4589 46.4327 56.9503 45.857 57.2888C45.4517 57.5531 45.0574 57.8338 44.674 58.1311C44.5194 58.2716 44.4106 58.4558 44.3618 58.6595C44.2468 59.3036 44.0168 59.4522 43.3432 59.2705C43.491 59.4852 43.6389 59.6834 43.7704 59.8981C43.8961 60.0795 43.9751 60.2895 44.0004 60.5091C43.9564 60.9155 43.8626 61.3149 43.7211 61.6982C43.606 62.0945 43.2939 62.1771 43.1131 61.8303C42.6038 60.9055 41.9466 61.0541 41.1415 61.3679C40.3364 61.6816 39.7449 61.7807 39.0548 62.0119C38.8912 62.0965 38.763 62.2371 38.6934 62.4083C38.6635 62.5126 38.6113 62.609 38.5405 62.6909C38.4696 62.7727 38.3817 62.838 38.2831 62.882C38.1844 62.9261 38.0773 62.9479 37.9694 62.946C37.8615 62.944 37.7552 62.9183 37.6582 62.8707C37.4725 62.7925 37.28 62.7317 37.0832 62.689C35.7687 62.4413 35.5387 61.3514 35.2265 60.311C35.1115 59.9146 35.358 59.7164 35.7359 59.733C36.1138 59.7495 36.3931 59.4687 36.3931 58.9898C36.3931 58.2136 36.3931 58.1476 37.1653 57.9659C37.5761 57.8668 37.839 57.7347 37.724 57.2558C37.7043 57.1831 37.6994 57.1072 37.7096 57.0326C37.7197 56.958 37.7447 56.8862 37.783 56.8215C37.8214 56.7568 37.8722 56.7005 37.9327 56.6559C37.9931 56.6114 38.0618 56.5795 38.1347 56.5622C38.3155 56.5622 38.4962 56.3971 38.7098 56.298C38.3319 55.5218 39.1534 55.3236 39.3506 54.8282C38.9986 54.5064 38.7698 54.071 38.7038 53.5975C38.6377 53.1239 38.7387 52.642 38.9891 52.2354C39.3221 51.9046 39.7452 51.6804 40.205 51.5914C40.3693 51.5914 40.6321 52.0042 40.895 52.2685C41.6015 51.5749 42.2259 52.2685 42.8995 52.7309C42.9631 52.6083 43.018 52.4814 43.0638 52.351C43.2939 51.8061 43.6553 51.773 44.0168 52.2354C44.3783 52.6978 44.3947 52.7144 44.9041 52.6483C44.7499 52.5867 44.6095 52.4948 44.4911 52.378C44.3726 52.2612 44.2785 52.1218 44.2143 51.9681C44.1501 51.8143 44.1169 51.6493 44.1169 51.4825C44.1168 51.3158 44.1498 51.1507 44.214 50.9969C44.2961 50.6666 44.214 50.2207 44.3126 49.8243C44.4111 49.428 43.9182 49.0151 43.5075 48.9986C43.2876 48.9928 43.076 48.9132 42.9062 48.7726C42.7365 48.6319 42.6185 48.4383 42.5709 48.2225C42.4395 47.8261 42.3573 47.2811 41.7165 47.2811C41.6344 47.2811 41.4865 46.8683 41.5194 46.6866C41.6259 46.2103 41.7631 45.7414 41.9301 45.2829C41.5851 45.2829 41.2401 45.5306 40.9936 45.4315C40.7472 45.3324 40.7143 44.9361 40.5664 44.6223C40.436 44.6451 40.3026 44.6451 40.1721 44.6223C40.1082 44.631 40.0431 44.6245 39.9822 44.6032C39.9213 44.582 39.8662 44.5466 39.8214 44.5C39.7766 44.4533 39.7433 44.3968 39.7243 44.3348C39.7054 44.2729 39.7011 44.2073 39.712 44.1434C39.712 43.6149 39.712 43.103 39.712 42.492C39.7536 42.3156 39.8448 42.1551 39.9749 42.0296C40.098 41.8996 40.2298 41.7782 40.3693 41.6663L39.5149 40.0148C39.1411 40.0512 38.7651 39.9729 38.4366 39.7901C38.1081 39.6073 37.8424 39.3286 37.6747 38.9909C37.3625 38.479 37.0667 38.3634 36.541 38.6772C36.0152 38.9909 35.6866 39.123 35.243 38.7928C34.7993 38.4625 34.5529 38.1157 34.1914 37.8019C33.4815 37.1082 32.6036 36.613 31.6447 36.3651C31.0368 36.2495 30.4946 36.6294 30.0017 36.3651C30.0017 36.3651 29.8045 36.5138 29.7224 36.6129C29.1801 37.2569 29.1309 37.2734 28.5394 36.778L27.6028 37.0257C27.5207 37.0257 27.3892 37.0257 27.3728 37.0257C27.1592 37.8019 26.6663 37.4551 26.2227 37.3065L25.9269 37.2074C25.7462 38.8588 24.4318 39.3873 23.3638 40.18C22.3229 40.8135 21.1302 41.1503 19.9134 41.1543H19.3876C19.1474 41.1163 18.9016 41.1673 18.696 41.298C18.4904 41.4286 18.3392 41.63 18.2704 41.8644C18.1999 42.0859 18.0732 42.2852 17.9028 42.4425C17.7323 42.5998 17.524 42.7097 17.2984 42.7614C17.0728 42.813 16.8377 42.8047 16.6163 42.7372C16.3949 42.6697 16.1948 42.5453 16.0358 42.3764C15.6086 42.0296 15.2636 41.5672 14.8693 41.1873C14.8129 41.1391 14.7476 41.1025 14.6771 41.0798C14.6066 41.0571 14.5323 41.0488 14.4585 41.0552C13.9163 41.1378 13.3905 41.2864 12.8155 41.3525C12.528 41.3372 12.2423 41.2986 11.9611 41.2369C11.4846 41.2369 10.9917 41.2369 10.4988 41.2369C10.176 41.1908 9.85731 41.119 9.5458 41.0222C9.34864 41.0222 9.10218 40.8736 8.95431 41.0222C8.82523 41.1147 8.67827 41.179 8.52294 41.2109C8.36761 41.2428 8.20735 41.2415 8.05251 41.2073C7.89767 41.1731 7.7517 41.1066 7.62403 41.0121C7.49635 40.9176 7.3898 40.7973 7.31127 40.6589L6.71977 40.0478L6.68691 40.3451C6.63129 40.5237 6.53613 40.6873 6.40858 40.8236C6.28103 40.9599 6.12441 41.0654 5.95048 41.1321C5.77655 41.1989 5.58983 41.2252 5.40435 41.209C5.21887 41.1928 5.03945 41.1346 4.87957 41.0387C4.87957 41.0387 4.64954 40.9231 4.64954 40.8571C4.64954 40.2625 4.1402 40.4112 3.82802 40.3121C3.51584 40.213 3.13794 40.18 2.99007 39.7506C2.99007 39.635 2.72718 39.5524 2.57931 39.5194C2.408 39.508 2.24455 39.4429 2.11194 39.3333C1.97932 39.2237 1.8842 39.0751 1.83994 38.9084C1.79125 38.6643 1.69132 38.4334 1.54682 38.2312C1.40232 38.029 1.21658 37.8601 1.00199 37.7358C0.937694 37.7009 0.884848 37.648 0.849854 37.5835C0.81486 37.5191 0.799219 37.4458 0.804825 37.3725C0.867991 36.6972 0.988928 36.0287 1.16629 35.3743C1.51133 34.3504 1.98781 33.3926 2.34928 32.3687C2.71075 31.3448 2.85863 31.4274 3.56513 31.9723L4.32093 32.4843L4.45238 32.4182C4.40662 32.2821 4.34011 32.154 4.25521 32.0384C3.53152 30.976 3.22698 29.6809 3.40083 28.4052C3.41356 28.0705 3.51572 27.7453 3.69658 27.4639C4.91243 25.8125 6.09542 23.9629 7.34413 22.2123C7.90982 21.4571 8.5304 20.7451 9.20077 20.082C9.51196 19.8695 9.87636 19.7493 10.2523 19.7352C10.4495 19.0086 11.041 18.2324 10.3838 17.3736C10.2754 17.1975 10.1767 17.0156 10.088 16.8287C9.79226 16.2176 9.87441 16.069 10.5645 16.036C10.2845 15.7661 10.0211 15.4794 9.77583 15.1772C9.62167 14.9482 9.48963 14.7049 9.3815 14.4506C9.1679 14.0047 8.92145 13.5588 8.72428 13.0799C8.53864 12.6923 8.406 12.2812 8.32995 11.8579C8.21741 11.1756 8.16245 10.4851 8.16565 9.79356C8.17943 9.65022 8.22313 9.51141 8.29391 9.3862C8.36469 9.26099 8.46095 9.1522 8.57641 9.06693C8.70499 9.00647 8.84521 8.97513 8.98717 8.97513C9.12913 8.97513 9.26935 9.00647 9.39793 9.06693C10.0223 9.43024 10.3345 9.44676 10.7781 8.90178C11.0418 8.58822 11.2679 8.24456 11.4517 7.87789C11.6618 7.44073 12.0331 7.10307 12.4868 6.93657L12.8155 6.78795C13.4436 6.41506 14.1838 6.28034 14.9021 6.40812C15.5186 6.4909 16.144 6.34404 16.6602 5.99526C16.7885 5.90722 16.9402 5.86012 17.0956 5.86012C17.2509 5.86012 17.4027 5.90722 17.531 5.99526C18.1564 6.32661 18.8797 6.42041 19.5684 6.25949C20.8569 6.0545 22.1743 6.13338 23.4295 6.49069C23.6569 6.58952 23.8766 6.70545 24.0867 6.83749C24.2279 6.91437 24.3862 6.95413 24.5468 6.95309C25.0031 6.90584 25.4636 6.98583 25.8776 7.18429C26.3342 7.32879 26.8126 7.39031 27.2906 7.36595C27.7671 7.36595 28.0957 7.51458 28.1779 8.02652C28.1779 8.29075 28.3422 8.38984 28.6215 8.38984C28.8086 8.38649 28.9941 8.42602 29.1637 8.50544C29.3286 8.60951 29.5194 8.66472 29.7141 8.66472C29.9089 8.66472 30.0996 8.60951 30.2646 8.50544C30.4453 8.40635 30.741 8.50544 30.9875 8.50544C31.2339 8.50544 30.9875 8.98435 30.9875 9.21555C30.9875 9.44676 30.9875 9.44676 30.9875 9.54584H31.1354C31.1354 9.31464 31.2339 9.06693 31.3161 8.85224C31.3983 8.63755 31.5133 8.42287 31.6776 8.35681C31.8419 8.29075 32.0062 8.53847 32.1541 8.65407C32.2569 8.76933 32.3452 8.8969 32.4169 9.0339C32.6963 8.75315 32.9427 8.47241 33.1892 8.20818C33.4356 7.94395 33.7971 7.84486 33.9943 8.32378C34.0187 8.42827 34.0659 8.52601 34.1324 8.60999C34.1989 8.69397 34.2831 8.76209 34.3789 8.80946C34.4748 8.85683 34.5799 8.88228 34.6866 8.88396C34.7934 8.88565 34.8992 8.86353 34.9965 8.81921C35.9495 8.5715 35.9495 8.62104 36.5574 9.77704C36.6383 9.69738 36.71 9.60874 36.771 9.51281C37.1489 8.70361 37.954 8.50544 38.6769 8.25772C38.8577 8.25772 39.2191 8.4559 39.3506 8.65407C39.5077 9.01545 39.6288 9.39162 39.712 9.77704C39.7942 10.0082 39.9092 10.2229 39.9914 10.4376H40.1721C40.4021 9.57887 41.1908 9.4963 41.8151 9.24858C41.9178 9.22401 42.0247 9.22401 42.1273 9.24858C42.7668 9.38791 43.4143 9.48719 44.0661 9.54584C44.4663 9.54115 44.8618 9.63321 45.2192 9.81428C45.5767 9.99534 45.8856 10.2601 46.1199 10.5862C46.4321 10.9991 46.4156 11.0156 46.9907 10.834C46.8352 10.4534 46.7089 10.0614 46.6128 9.66144C46.4649 8.93481 46.3664 8.17515 46.2842 7.432C46.2922 7.21128 46.3666 6.99819 46.4978 6.82097C47.04 5.96223 47.6151 5.16954 48.1408 4.29428C48.2826 4.07728 48.4672 3.89181 48.683 3.74931C48.9182 3.5502 49.2212 3.45092 49.5279 3.4725C49.8346 3.49408 50.1209 3.63482 50.3261 3.86491C50.7861 2.98965 51.5091 3.02267 52.2977 3.18782C52.8631 3.21865 53.4189 3.34714 53.9408 3.56765C54.5323 3.93096 55.8631 3.10525 56.0439 2.41164C56.094 2.17545 56.177 1.94752 56.2903 1.73455C56.6682 0.941866 56.8654 0.892323 57.6212 1.35472C58.0642 1.58914 58.5751 1.65968 59.0646 1.55403C59.5541 1.44839 59.9911 1.17327 60.2994 0.776722C60.6444 0.19872 60.8908 0.0996338 61.5316 0.297806L62.1067 0.529007C62.2518 0.629129 62.4236 0.682721 62.5996 0.682721C62.7756 0.682721 62.9474 0.629129 63.0925 0.529007C63.4869 0.264777 64.6041 0.529007 65.0806 1.07398C65.6256 1.64746 66.0257 2.34407 66.2472 3.10525C66.447 3.63005 66.7179 4.12464 67.0522 4.57502C67.2707 4.83859 67.5067 5.08688 67.7588 5.31817C68.2845 5.87966 68.2352 6.24297 67.5945 6.63932L67.0522 6.95309L66.5265 7.25035C66.7351 7.3945 66.9279 7.56058 67.1015 7.74578C67.2628 7.92088 67.3711 8.13857 67.4137 8.37332C67.4137 8.88527 67.4137 9.41373 67.5123 9.92567C67.5416 9.99792 67.5886 10.0616 67.6489 10.1106C67.7092 10.1597 67.7809 10.1927 67.8573 10.2064C68.4687 10.0893 69.1014 10.1885 69.6483 10.4872C69.9231 10.6291 70.2247 10.7112 70.5332 10.7283C70.8418 10.7454 71.1505 10.697 71.4392 10.5862C71.9814 10.3881 72.1457 10.4706 72.2771 11.0321C72.3247 11.2496 72.4312 11.4496 72.5849 11.6099C72.7386 11.7702 72.9335 11.8846 73.1479 11.9404C73.3573 12.0083 73.5523 12.1147 73.723 12.2542C73.9366 12.4028 73.9695 12.568 73.8216 12.8322C73.7476 13.0404 73.7476 13.268 73.8216 13.4763C73.9366 13.8231 74.1666 14.1203 74.2488 14.4671C74.2816 14.7745 74.2816 15.0845 74.2488 15.3919C74.2488 15.6892 74.1666 16.036 74.2488 16.2507C74.5375 16.6852 74.856 17.099 75.2017 17.4892C76.0561 17.3406 76.7626 17.1755 77.4856 17.0929C77.6185 17.1103 77.7466 17.1544 77.8624 17.2224C77.9781 17.2905 78.079 17.3813 78.1592 17.4892C78.4137 17.8214 78.6391 18.175 78.8329 18.5462C79.0052 18.4108 79.2112 18.3254 79.4284 18.2992C79.6456 18.273 79.8658 18.307 80.0651 18.3975C80.4411 18.5049 80.8393 18.5049 81.2153 18.3975C82.3161 18.0342 83.4005 17.6048 84.5013 17.1755C85.0764 16.9443 85.1586 16.9443 85.4707 17.5058C85.4707 17.5883 85.5529 17.7039 85.635 17.7535C86.1884 18.2544 86.6019 18.892 86.8345 19.6031C86.9466 19.8211 87.1102 20.0082 87.3109 20.1481C87.8039 20.5609 88.3296 20.9407 88.954 21.4031C88.9633 21.0483 89.0018 20.6948 89.069 20.3462C89.1163 20.0856 89.2639 19.8542 89.4798 19.7022C89.7368 19.6768 89.9941 19.7473 90.2027 19.9003C90.6299 20.1976 91.0242 20.7756 91.4514 20.7921C92.2593 20.9366 93.0075 21.3155 93.6038 21.8821C93.7208 21.9316 93.8465 21.9571 93.9735 21.9571C94.1004 21.9571 94.2261 21.9316 94.3432 21.8821C94.5647 21.7811 94.8121 21.7524 95.0507 21.7997C95.2894 21.8471 95.5073 21.9683 95.674 22.1463C95.9415 22.3855 96.2855 22.5202 96.6434 22.5261C96.8822 22.5243 97.117 22.5879 97.3225 22.7101C97.528 22.8323 97.6966 23.0085 97.81 23.2197C98.04 23.583 98.3193 23.9133 98.5986 24.2766C98.821 24.0683 99.0571 23.8752 99.3051 23.6986C99.3776 23.6174 99.4662 23.5524 99.5653 23.508C99.6644 23.4635 99.7717 23.4405 99.8802 23.4405C99.9887 23.4405 100.096 23.4635 100.195 23.508C100.294 23.5524 100.383 23.6174 100.455 23.6986C100.817 24.095 100.455 24.3427 100.275 24.6234C100.249 24.6724 100.216 24.717 100.176 24.7556C100.383 25.1485 100.558 25.5571 100.702 25.9776C100.759 26.1018 100.789 26.2371 100.789 26.374C100.789 26.5109 100.759 26.6461 100.702 26.7703C100.077 27.5465 99.8474 28.719 98.5986 28.8346C98.7794 29.5282 99.1408 29.7759 99.7159 29.6438C100.291 29.5117 100.34 29.8089 100.225 30.2218C100.148 30.4331 100.016 30.6198 99.8426 30.7621C99.6692 30.9045 99.4608 30.9974 99.2394 31.031C98.4672 31.2457 98.4179 31.6255 98.8615 32.2861C99.3853 32.9369 99.6437 33.7632 99.5845 34.5981C99.5845 34.7467 99.6995 34.9284 99.7488 35.0935C99.7981 35.2587 99.9295 35.5229 99.8802 35.6881C99.698 36.4489 99.4731 37.1987 99.2066 37.934C99.129 38.2031 98.9672 38.4399 98.7453 38.6095C98.5234 38.779 98.253 38.8722 97.9743 38.8753H94.6882C94.4089 38.8753 94.1953 38.8753 94.1624 39.2221C93.9324 40.6589 92.963 41.1543 91.665 41.2699C91.2378 41.2699 90.9749 41.5011 90.9914 41.98C90.9587 42.4253 90.9587 42.8724 90.9914 43.3177C91.0712 43.8711 91.0263 44.4355 90.8599 44.9691C90.6628 45.7783 90.3834 45.96 89.5455 45.927C88.8101 45.9018 88.074 45.935 87.3438 46.026C86.9778 46.0838 86.642 46.2642 86.3908 46.538C86.1834 46.8128 85.9149 47.035 85.6068 47.187C85.2987 47.339 84.9595 47.4165 84.6164 47.4132C84.5062 47.4042 84.3954 47.4172 84.2903 47.4514C84.1852 47.4855 84.0879 47.5403 84.0039 47.6124C83.9199 47.6845 83.8509 47.7727 83.801 47.8717C83.751 47.9707 83.721 48.0787 83.7127 48.1894C83.6916 48.2892 83.6526 48.3844 83.5977 48.4702C83.3676 49.0317 83.0226 49.1638 82.4968 48.8665C82.3552 48.7734 82.1896 48.7239 82.0203 48.7239C81.8511 48.7239 81.6855 48.7734 81.5439 48.8665C80.9688 49.1968 80.3937 49.5271 79.8022 49.8409C79.5783 49.9563 79.331 50.0184 79.0793 50.0225C78.1442 50.0235 77.2384 50.3503 76.5162 50.9473C76.0397 51.3106 75.5961 51.707 75.1031 52.0208C74.8181 52.1212 74.518 52.1714 74.2159 52.1694C74.1764 52.4291 74.0513 52.6679 73.8606 52.8476C73.6699 53.0272 73.4247 53.1374 73.1644 53.1602C72.9888 53.2252 72.8229 53.3141 72.6714 53.4245L70.7655 54.3823V54.2832C70.6012 55.5218 71.5378 55.9347 72.3264 56.5127C72.54 56.6613 72.8029 56.7604 73.0493 56.909C73.2545 57.0205 73.4154 57.1994 73.5051 57.4158C73.5949 57.6323 73.608 57.8731 73.5423 58.098C73.5423 58.2797 73.5423 58.4779 73.4108 58.6595C73.3575 58.8333 73.368 59.0205 73.4403 59.1872C73.5127 59.3539 73.6421 59.4889 73.8051 59.5678C74.2418 59.8323 74.7489 59.9552 75.2575 59.9198C75.7661 59.8843 76.2515 59.6922 76.6476 59.3696C76.7679 59.2468 76.9 59.1362 77.0419 59.0393C77.1983 58.887 77.4075 58.8018 77.6252 58.8018C77.843 58.8018 78.0522 58.887 78.2085 59.0393C78.3476 59.1389 78.5142 59.1924 78.685 59.1924C78.8558 59.1924 79.0223 59.1389 79.1615 59.0393C79.4509 58.886 79.7533 58.7589 80.0651 58.6595C80.4175 58.5517 80.7966 58.574 81.134 58.7224C81.4714 58.8708 81.745 59.1355 81.9053 59.4687C82.0696 59.8155 81.9053 60.0137 81.5767 60.0632C81.2481 60.1128 80.8702 60.2449 80.9688 60.889C81.0179 61.1731 81.0179 61.4636 80.9688 61.7477C80.921 61.9842 80.7861 62.1938 80.5911 62.3346C80.3962 62.4755 80.1555 62.5372 79.9173 62.5074C78.7836 62.5074 77.6499 62.2927 76.5162 62.1275C76.1054 62.1275 75.8425 62.1275 75.6946 62.5239C75.5781 62.7685 75.3886 62.9706 75.1524 63.1019C74.0533 63.8393 72.8277 64.3657 71.5378 64.6542C71.0859 64.7417 70.6618 64.9375 70.3014 65.2251C69.9409 65.5126 69.6549 65.8833 69.4675 66.3057C69.3897 66.554 69.2546 66.7804 69.0732 66.9662C68.8407 67.1972 68.5516 67.3624 68.2352 67.4452C67.4863 67.6022 66.7294 67.718 65.9678 67.792C65.6707 67.7855 65.3787 67.7121 65.1135 67.5773C64.9337 67.4469 64.7685 67.2974 64.6205 67.1314C64.0783 66.5864 64.0455 66.3222 64.4727 65.6946C64.7558 65.2839 64.8946 64.7899 64.867 64.2909C64.867 63.6799 64.867 63.0854 64.867 62.4743C64.867 61.8633 64.7191 61.8468 64.2098 61.9789C64.0456 62.066 63.8649 62.1172 63.6796 62.129C63.4942 62.1409 63.3085 62.1131 63.1347 62.0476C62.9608 61.982 62.8027 61.8802 62.6709 61.7488C62.539 61.6175 62.4363 61.4595 62.3696 61.2853C62.2642 61.0774 62.0903 60.9127 61.8775 60.8193C61.6648 60.7259 61.4264 60.7097 61.203 60.7734C60.8087 60.7734 60.4144 60.8724 60.02 60.889C59.6257 60.9055 59.3135 60.6247 59.33 60.1293C59.3308 59.8 59.4141 59.4762 59.572 59.1876C59.7299 58.899 59.9574 58.655 60.2336 58.4779C60.7758 58.1311 61.3673 57.8503 61.8767 57.5365C62.7639 57.0081 63.6512 56.5127 64.4891 55.8851C64.982 55.753 64.9985 55.3401 64.7356 54.7952ZM53.76 50.8813V51.0299L56.2246 51.4427C56.2789 51.4406 56.3318 51.4243 56.3779 51.3953C56.424 51.3663 56.4618 51.3258 56.4875 51.2776C56.4921 51.2225 56.4841 51.1671 56.4642 51.1156C56.4442 51.0641 56.4129 51.0178 56.3725 50.9803C55.9453 50.6666 55.551 50.2207 54.9266 50.6335C54.8116 50.6335 54.598 50.6335 54.4337 50.6335C54.2694 50.6335 54.0065 50.8152 53.76 50.8813ZM68.8432 54.4814C68.2845 54.2502 68.0052 53.6226 67.2823 53.9199C67.7423 54.2667 68.0874 54.7126 68.8432 54.4814Z" fill="white"/>
</mask>
<g mask="url(#mask0_39_258)">
<path d="M101.983 34.73C101.852 37.009 101.72 39.288 101.572 41.5669C101.572 42.6569 101.145 43.5652 99.9294 43.4331C98.7135 43.3009 98.5328 42.3927 98.6314 41.3853C99.199 35.7107 99.0166 29.9855 98.0892 24.359C96.3429 14.4653 91.5167 5.38426 84.3059 -1.57547C77.0951 -8.5352 67.8722 -13.0142 57.9661 -14.3672C47.1877 -15.7544 36.9023 -14.3672 27.5041 -8.70275C21.2294 -5.09857 15.8577 -0.100031 11.7997 5.91073C7.74174 11.9215 5.10489 18.7853 4.09078 25.9774C3.95982 26.8529 3.87754 27.735 3.84432 28.6197C3.84432 29.7261 3.49928 30.6509 2.20128 30.5188C0.903276 30.3867 0.755402 29.3298 0.919706 28.3224C1.34506 24.7601 2.02596 21.2334 2.95708 17.7698C8.74058 0.264542 20.3733 -11.6423 38.266 -16.3159C45.4415 -18.2405 52.9509 -18.5504 60.2592 -17.2236C67.5674 -15.8967 74.4945 -12.9658 80.5466 -8.63974C86.5987 -4.31365 91.6268 1.30107 95.2725 7.80421C98.9182 14.3074 101.092 21.5388 101.638 28.983C101.802 30.8987 101.885 32.8143 101.983 34.73Z" fill="#FDDE6A"/>
<path d="M51.0495 16.2668C55.535 16.465 60.4148 17.5384 63.8324 21.8156C65.1473 23.5534 66.1483 25.5098 66.7898 27.5956C69.5357 35.8159 74.4951 43.1101 81.1172 48.6679C85.0764 52.1535 89.5006 55.0662 94.2615 57.3215C95.2145 57.7673 95.9045 58.3949 95.3623 59.4848C94.8201 60.5748 93.9329 60.5252 92.9963 60.0628C79.507 53.2259 69.0244 43.5485 64.0131 28.6856C62.9725 25.2278 60.6097 22.3262 57.4433 20.6172C54.2768 18.9082 50.5651 18.5315 47.1226 19.5697C44.7489 20.2693 42.6296 21.6497 41.0246 23.5416C39.4195 25.4335 38.3982 27.7549 38.0859 30.2214C37.708 33.2601 37.6751 36.3813 37.0508 39.3704C35.4078 47.1651 30.988 53.358 25.3359 58.6426C22.0498 61.6647 18.468 64.1914 15.0176 66.8998C14.7219 67.131 14.3768 67.4778 14.0811 67.4613C13.4074 67.4613 12.438 67.4613 12.1916 66.9824C12.0751 66.6641 12.0411 66.3212 12.0928 65.9861C12.1446 65.6509 12.2803 65.3345 12.4873 65.0667C13.2368 64.4335 14.0457 63.8749 14.9026 63.3987C20.2261 59.3857 25.3852 55.2241 29.2135 49.6093C32.5774 44.9308 34.4922 39.3582 34.7177 33.5903C34.5888 29.3547 35.9372 25.207 38.5295 21.8651C40.0275 20.0037 41.9433 18.5257 44.1197 17.5526C46.296 16.5794 48.6709 16.1388 51.0495 16.2668Z" fill="#FDDE6A"/>
<path d="M61.5318 48.3871C60.0531 52.3836 58.8044 56.4461 57.0956 60.3105C53.5378 67.8308 48.7939 74.7236 43.0476 80.7222C42.3411 81.5149 41.5853 82.3737 40.8623 83.0673C40.1394 83.7609 39.3015 84.2233 38.4471 83.3811C37.5927 82.5388 38.0199 81.7296 38.6935 80.9369C42.3082 76.5606 46.1365 72.333 49.4226 67.7255C54.2511 60.9923 57.4418 53.2151 58.7386 45.0182C58.7506 44.8336 58.801 44.6536 58.8865 44.4898C59.2644 43.9118 59.6259 43.02 60.1188 42.9209C60.4642 42.9366 60.8024 43.0257 61.1111 43.1822C61.4197 43.3388 61.6919 43.5593 61.9097 43.8292C64.9329 47.2311 67.7261 50.8643 70.8971 54.1176C75.752 58.9585 81.1951 63.1643 87.0975 66.6355C87.3768 66.8006 87.8205 66.9493 87.8698 67.1805C88.1041 67.7923 88.1386 68.4633 87.9683 69.0961C87.574 69.9219 86.7032 69.9549 85.931 69.4429C83.1049 67.5603 80.1968 65.7768 77.4693 63.762C71.6814 59.5144 66.4773 54.5169 61.9919 48.8991C61.8276 48.7009 61.6304 48.5027 61.5318 48.3871Z" fill="#FDDE6A"/>
<path d="M50.3589 5.6315C56.2112 5.55252 61.9466 7.28191 66.7893 10.5858C67.1672 10.85 67.5451 11.1473 67.9065 11.428C68.7116 12.0556 69.0567 12.8483 68.3666 13.707C67.6765 14.5658 66.8221 14.4171 66.0335 13.7896C62.6137 11.1471 58.5639 9.453 54.2887 8.87661C50.0134 8.30022 45.6626 8.86172 41.6709 10.505C37.6792 12.1483 34.1865 14.8158 31.5419 18.2409C28.8973 21.666 27.1934 25.7288 26.6005 30.0232C26.3705 31.8233 26.2554 33.6398 26.124 35.4564C25.863 38.9764 24.3869 42.2943 21.9507 44.8366C20.6855 46.2072 19.3054 47.4458 17.9417 48.7174C17.8092 48.9016 17.6351 49.0516 17.4337 49.155C17.2323 49.2584 17.0094 49.3123 16.7833 49.3123C16.5572 49.3123 16.3343 49.2584 16.1329 49.155C15.9316 49.0516 15.7575 48.9016 15.625 48.7174C15.4861 48.5585 15.3835 48.371 15.3242 48.1681C15.2649 47.9652 15.2504 47.7517 15.2817 47.5425C15.313 47.3334 15.3893 47.1336 15.5054 46.9572C15.6214 46.7807 15.7744 46.6319 15.9536 46.521C16.8572 45.7118 17.7281 44.8696 18.6153 44.0439C20.102 42.6644 21.2863 40.9885 22.0926 39.1232C22.8988 37.2579 23.3094 35.2442 23.298 33.2105C23.363 29.3057 24.2349 25.4572 25.8585 21.9093C27.482 18.3613 29.8217 15.1913 32.729 12.6006C37.5565 8.18305 43.8308 5.70282 50.3589 5.6315Z" fill="#FDDE6A"/>
<path d="M96.1669 32.517C96.0354 34.3997 95.9204 36.1172 95.7726 37.8346C95.6247 39.5521 95.0168 40.4439 93.9488 40.2953C92.8808 40.1467 92.5358 39.3375 92.7494 37.6034C94.0261 27.3865 91.3693 17.0654 85.3228 8.75288C79.477 0.243732 70.6929 -5.77757 60.6772 -8.1413L59.8721 -8.35599C59.6593 -8.37482 59.4536 -8.44189 59.2703 -8.55217C59.087 -8.66245 58.931 -8.81306 58.8139 -8.99268C58.6969 -9.1723 58.6219 -9.37625 58.5946 -9.58919C58.5673 -9.80214 58.5884 -10.0185 58.6563 -10.2221C58.6931 -10.4207 58.7732 -10.6086 58.8908 -10.7725C59.0084 -10.9363 59.1605 -11.072 59.3364 -11.1698C59.5122 -11.2677 59.7074 -11.3252 59.9079 -11.3384C60.1085 -11.3516 60.3095 -11.32 60.4965 -11.246C62.7553 -10.7119 64.9779 -10.0334 67.1508 -9.21474C83.2033 -2.609 92.6015 9.54556 95.6576 26.6709C96.019 28.6362 96.019 30.6674 96.1669 32.517Z" fill="#FDDE6A"/>
<path d="M57.2103 39.0237C56.886 46.7522 54.6801 54.2827 50.786 60.9547C50.2931 61.863 49.603 62.4906 48.5351 61.8796C47.4671 61.2685 47.6643 60.3602 48.1736 59.4519C51.0942 54.5037 52.9993 49.0176 53.7764 43.3174C54.0885 40.3283 53.9242 37.2732 53.9571 34.251C53.9288 33.8314 53.8345 33.4189 53.6778 33.029C53.0206 31.0968 51.8047 30.1555 50.2603 30.3867C48.7158 30.6179 48.1572 31.8399 48.0257 33.9373C47.8614 36.8108 47.5492 39.6843 47.2699 42.5412C47.2201 42.959 47.1208 43.3692 46.9742 43.7633C46.7113 44.6055 46.0376 45.1175 45.3311 44.7707C45.0292 44.6027 44.7707 44.3657 44.5766 44.0788C44.3825 43.792 44.2583 43.4633 44.2139 43.1192C44.4275 39.5521 44.7561 35.985 45.1504 32.4179C45.2717 31.2542 45.7444 30.1557 46.5052 29.2701C47.2659 28.3844 48.2782 27.754 49.4059 27.4636C50.5777 27.2221 51.7951 27.3474 52.8939 27.8228C53.9927 28.2983 54.92 29.1009 55.5509 30.1225C56.7231 32.1181 57.2938 34.4129 57.1939 36.7282C57.2268 37.5044 57.2103 38.2971 57.2103 39.0237Z" fill="#FDDE6A"/>
<path d="M0.657417 42.5907C0.966759 42.1682 1.3379 41.7952 1.75825 41.4843C2.90838 40.7907 4.12423 40.1961 5.32365 39.5851C7.43858 38.5463 9.22418 36.9364 10.4806 34.9356C11.7371 32.9349 12.4148 30.6221 12.438 28.2563C13.391 16.432 19.536 7.64636 28.9342 0.825931C29.7557 0.231414 30.5772 0.0992993 31.2673 0.991074C31.9574 1.88285 31.4973 2.69205 30.6265 3.33611C26.6454 6.10965 23.2132 9.60423 20.5054 13.6411C17.4107 18.2316 15.6108 23.5789 15.2969 29.115C14.9026 35.9189 11.2386 40.064 5.55368 42.921C4.58429 43.4164 3.66418 43.9449 2.67836 44.3412C1.69253 44.7376 0.640986 43.9779 0.657417 42.5907Z" fill="#FDDE6A"/>
<path d="M49.5707 37.554C49.4722 36.5467 49.4064 35.5228 49.2914 34.4989C49.1764 33.475 49.4886 32.5832 50.6387 32.4676C51.7889 32.352 52.1832 33.0456 52.2818 34.1191C52.8775 40.2347 51.9516 46.4034 49.5872 52.0702C45.3974 63.0522 37.9873 71.5901 29.0163 78.906C28.1784 79.5831 27.3733 79.8308 26.601 78.906C25.8288 77.9812 26.371 77.2545 27.1925 76.5279C32.5624 72.2945 37.2797 67.286 41.1912 61.665C45.7218 55.2952 48.5504 47.8634 49.4064 40.0807C49.4558 39.2447 49.4558 38.4066 49.4064 37.5706L49.5707 37.554Z" fill="#FDDE6A"/>
<path d="M55.8637 -9.03304C48.9703 -9.85482 41.9818 -8.94701 35.5228 -6.39074C26.9498 -2.93738 19.8317 3.39428 15.3792 11.5273C15.1656 11.8906 14.9684 12.254 14.7712 12.6338C14.2783 13.5751 13.5718 14.1201 12.5203 13.5421C11.4687 12.9641 11.6166 12.0723 12.1095 11.2466C13.4595 8.86452 14.9405 6.55995 16.5457 4.34359C25.8453 -7.3816 38.086 -12.6497 52.8569 -12.3194C53.777 -12.3194 54.7136 -12.1708 55.6337 -12.0717C56.5538 -11.9726 57.2767 -11.3781 57.0467 -10.4202C56.8824 -9.7927 56.1101 -9.31378 55.8637 -9.03304Z" fill="#FDDE6A"/>
<path d="M49.0941 -6.24219C59.9053 -5.97796 68.4327 -2.93932 75.8428 3.18751C76.96 4.07928 77.2065 5.07014 76.5 5.78026C75.7935 6.49038 74.7584 6.19312 73.9368 5.53254C70.0823 2.28115 65.6027 -0.137339 60.7773 -1.57217C55.952 -3.007 50.8843 -3.42742 45.8901 -2.8072C42.1905 -2.39671 38.6039 -1.27541 35.3254 0.495667C34.8876 0.837675 34.3517 1.02878 33.7974 1.04064C33.3044 0.92504 32.5815 0.297495 32.5979 -0.0658207C32.6104 -0.410706 32.6995 -0.748419 32.8587 -1.05419C33.0179 -1.35995 33.2432 -1.62602 33.518 -1.83286C36.3777 -3.14203 39.3262 -4.24575 42.3412 -5.13573C44.5609 -5.67619 46.8184 -6.04607 49.0941 -6.24219Z" fill="#FDDE6A"/>
<path d="M100.341 46.4056C100.341 48.057 99.4206 48.6515 98.2212 48.2222C93.8585 46.5943 89.7861 44.2689 86.1613 41.3357C80.509 37.022 76.2135 31.1622 73.7892 24.458C72.6304 21.9275 71.2387 19.5114 69.6323 17.2412C69.2616 16.7597 69.0186 16.1915 68.9258 15.5898C68.9678 15.3282 69.0718 15.0806 69.2291 14.8679C69.3864 14.6552 69.5923 14.4836 69.8295 14.3677C70.1528 14.3343 70.4795 14.3668 70.7901 14.4632C71.1006 14.5597 71.3886 14.7182 71.6368 14.9292C73.8535 17.209 75.5373 19.9563 76.5659 22.9717C78.9732 30.3685 83.9018 36.6733 90.4825 40.7742C93.1442 42.5082 96.1017 43.8128 98.8948 45.3487C99.4168 45.6421 99.9022 45.9969 100.341 46.4056Z" fill="#FDDE6A"/>
<path d="M52.0515 11.0482C55.9215 11.2034 59.6768 12.4133 62.9153 14.5484C66.1539 16.6836 68.7539 19.6637 70.4371 23.1697C72.1952 26.6047 73.7232 30.1388 75.3663 33.6233C75.4652 33.7973 75.5259 33.9905 75.5443 34.1901C75.5627 34.3896 75.5384 34.5908 75.4731 34.7801C75.4077 34.9694 75.3027 35.1424 75.1653 35.2875C75.0278 35.4327 74.8611 35.5466 74.6762 35.6215C74.5063 35.7302 74.3143 35.7991 74.1143 35.8233C73.9144 35.8475 73.7116 35.8263 73.5209 35.7614C73.3301 35.6964 73.1563 35.5893 73.0122 35.4479C72.8681 35.3066 72.7573 35.1345 72.6881 34.9445C71.7516 33.1774 70.8972 31.3774 70.0264 29.5608C69.1556 27.7442 68.3833 25.6304 67.2661 23.7642C64.98 19.7002 61.2937 16.617 56.9022 15.096C52.5106 13.575 47.7172 13.7212 43.4255 15.5071C43.1298 15.6227 42.8505 15.7878 42.5383 15.9034C42.3569 16.0142 42.1535 16.0836 41.9424 16.1065C41.7314 16.1294 41.5179 16.1053 41.3172 16.036C41.1164 15.9666 40.9333 15.8537 40.7809 15.7052C40.6285 15.5567 40.5105 15.3763 40.4352 15.1768C40.008 14.2189 40.4352 13.5253 41.3389 13.1455C44.6965 11.6109 48.3663 10.8925 52.0515 11.0482Z" fill="#FDDE6A"/>
<path d="M63.5202 58.5933C61.1214 62.9696 59.084 67.1147 56.6359 70.9955C53.7934 75.4709 50.5566 79.6986 47.517 84.0419C46.8926 84.9336 46.0875 85.3465 45.151 84.6529C44.2145 83.9593 44.4938 83.0015 45.151 82.2088C48.6671 77.2545 52.3475 72.3002 55.5515 66.9826C57.613 63.3415 59.4459 59.5744 61.0392 55.7032C61.9593 53.6885 62.8794 53.4903 64.3253 55.1087C66.2312 57.1565 68.17 59.1658 70.1417 61.1365C70.9468 61.9292 71.4068 62.7879 70.5689 63.6632C69.7309 64.5384 68.7944 64.1256 68.055 63.3329L63.5202 58.5933Z" fill="#FDDE6A"/>
<path d="M50.901 2.49395C44.8034 2.47635 38.8437 4.31643 33.8076 7.77162C28.7714 11.2268 24.8952 16.1349 22.69 21.8488V21.9809C22.3778 23.0378 21.7863 23.847 20.5869 23.4341C19.3875 23.0213 19.371 21.9974 19.864 21.0065C20.8685 18.6066 22.0549 16.2877 23.4129 14.0705C26.3997 9.54592 30.4632 5.84243 35.2346 3.296C40.0061 0.749568 45.3346 -0.559228 50.7367 -0.511663C51.6207 -0.589027 52.5113 -0.505105 53.3656 -0.263948C53.6767 -0.129125 53.9535 0.0745549 54.1754 0.331904C54.3973 0.589253 54.5586 0.893632 54.6471 1.22234C54.7457 2.08109 54.0556 2.64258 53.1191 2.64258C52.1826 2.64258 51.6404 2.54349 50.901 2.49395Z" fill="#FDDE6A"/>
<path d="M57.9009 0.132324C60.6612 1.22227 63.2737 2.0645 65.7054 3.27005C69.9492 5.37592 73.7038 8.35709 76.7245 12.0192C79.7452 15.6813 81.9641 19.9422 83.2366 24.524C83.3516 24.9204 83.4502 25.3332 83.5324 25.7461C83.7131 26.7039 83.4502 27.3975 82.448 27.6948C81.4457 27.992 80.9199 27.3645 80.6078 26.4232C79.967 24.5736 79.3755 22.7074 78.5868 20.9239C74.6107 11.874 67.6113 6.34172 58.2624 3.61685C57.9502 3.51777 57.5066 3.51777 57.3587 3.31959C56.9973 2.80765 56.4879 2.14707 56.5536 1.66816C56.6193 1.18924 57.3423 0.710326 57.9009 0.132324Z" fill="#FDDE6A"/>
<path d="M45.6765 48.0238C45.3479 48.8991 45.1343 49.5597 44.8386 50.1872C40.1292 60.291 33.0333 69.0843 24.1691 75.801C23.3147 76.4781 22.4111 76.8249 21.6388 75.801C20.8666 74.7771 21.4745 74.1495 22.2961 73.4394C31.1197 66.8038 38.0916 57.9932 42.5383 47.8587C42.8834 47.0165 43.5077 46.5045 44.3785 46.8348C44.8879 47.0165 45.2658 47.6275 45.6765 48.0238Z" fill="#FDDE6A"/>
<path d="M37.9873 15.3423C38.4802 15.7551 39.1702 16.0524 39.2688 16.4983C39.3458 17.0812 39.199 17.6718 38.8581 18.1497C37.9708 19.2892 36.8536 20.2305 35.9663 21.37C33.726 24.3806 32.4174 27.9876 32.2037 31.741C31.7437 36.4311 31.2179 41.1212 28.8191 45.3323C28.6219 45.6957 28.4412 46.2241 28.129 46.3397C27.5375 46.5709 26.6996 46.8351 26.2724 46.5709C26.0398 46.3542 25.8675 46.0803 25.7724 45.7762C25.6773 45.4721 25.6627 45.1484 25.7302 44.8369C28.5398 40.2294 28.7534 35.0109 29.4106 29.974C30.014 24.7265 32.5311 19.89 36.4757 16.3992C36.9557 16.0137 37.4607 15.6606 37.9873 15.3423Z" fill="#FDDE6A"/>
<path d="M2.33275 49.0477C2.71763 48.6065 3.15335 48.2129 3.63075 47.8752C6.24319 46.2238 8.98707 44.8861 11.5173 43.1686C13.3279 42.0518 14.8246 40.4887 15.8655 38.6274C16.9064 36.7662 17.457 34.6685 17.4652 32.5334C17.6012 30.5376 17.8591 28.5522 18.2374 26.5882C18.2392 26.3623 18.294 26.14 18.3973 25.9394C18.5007 25.7387 18.6496 25.5654 18.8321 25.4335C19.0146 25.3016 19.2254 25.2147 19.4475 25.1801C19.6697 25.1454 19.8968 25.1639 20.1105 25.234C21.0963 25.4322 21.3427 26.1754 21.1949 27.1497C20.9155 29.1314 20.5541 31.1297 20.4555 33.1114C20.3459 35.7146 19.595 38.2498 18.2701 40.4894C16.9452 42.729 15.0878 44.6029 12.8646 45.943C10.2522 47.6936 7.45904 49.1633 4.64944 50.6827C3.40073 51.3928 2.29989 50.7652 2.33275 49.0477Z" fill="#FDDE6A"/>
<path d="M86.8345 31.7408C87.0585 24.1882 84.3949 16.8363 79.3915 11.197C78.7538 10.6361 78.2004 9.98524 77.7484 9.26481C77.6059 8.93958 77.5322 8.58807 77.5322 8.23266C77.5322 7.87726 77.6059 7.52575 77.7484 7.20052C78.3071 6.39131 79.2108 6.53994 79.9008 7.20052C84.7452 12.0415 88.0064 18.2516 89.2497 25.003C89.5983 27.919 89.7903 30.8518 89.8248 33.7886C89.9159 34.295 89.8588 34.817 89.6605 35.2914C89.3155 35.7869 88.6089 36.4805 88.1818 36.3979C87.8647 36.2891 87.5775 36.1068 87.3435 35.8658C87.1094 35.6249 86.935 35.3319 86.8345 35.0107C86.7326 33.9231 86.7326 32.8284 86.8345 31.7408Z" fill="#FDDE6A"/>
<path d="M57.8516 28.2564C58.2459 27.8601 58.6238 27.1334 59.1003 27.0674C59.4117 27.0719 59.7187 27.1419 60.0017 27.2727C60.2846 27.4035 60.5372 27.5923 60.7433 27.827C61.2659 28.5979 61.6548 29.4523 61.8934 30.3537C64.4441 38.2429 68.9706 45.3402 75.0378 50.9636C75.2349 51.1618 75.465 51.3435 75.6457 51.5416C75.8013 51.6681 75.9288 51.8259 76.0198 52.005C76.1109 52.184 76.1636 52.3803 76.1744 52.5811C76.1852 52.7819 76.154 52.9828 76.0828 53.1707C76.0115 53.3586 75.9018 53.5294 75.7607 53.672C75.6285 53.8404 75.4599 53.9765 75.2679 54.07C75.0758 54.1636 74.8651 54.2122 74.6517 54.2122C74.4382 54.2122 74.2275 54.1636 74.0355 54.07C73.8434 53.9765 73.6749 53.8404 73.5426 53.672C71.5545 51.5912 69.5007 49.5434 67.6605 47.314C63.8655 42.7254 61.012 37.427 59.2646 31.7244C58.8702 30.618 58.3773 29.561 57.8516 28.2564Z" fill="#FDDE6A"/>
<path d="M64.8343 67.5276C63.7006 69.6415 62.6819 71.5736 61.6468 73.4893C61.1375 74.4141 60.4802 75.1407 59.3301 74.5462C58.18 73.9517 58.4757 72.9774 58.9851 72.003C60.2831 69.5754 61.5154 67.1313 62.7641 64.6872C63.6185 63.0357 64.4071 63.0357 65.8858 64.1917C69.7634 67.4946 73.7232 70.8966 77.65 74.2325C77.7909 74.3517 77.9391 74.462 78.0936 74.5627C78.8987 75.1738 79.3095 75.9169 78.6358 76.8252C78.5137 77.0148 78.3496 77.1736 78.1565 77.2892C77.9633 77.4048 77.7463 77.474 77.5222 77.4916C77.2981 77.5092 77.073 77.4746 76.8643 77.3905C76.6557 77.3064 76.4691 77.1752 76.3192 77.0069C73.0331 74.3646 69.747 71.7058 66.4609 69.0304C65.9187 68.6011 65.4422 68.1056 64.8343 67.5276Z" fill="#FDDE6A"/>
<path d="M97.2846 54.7456L96.0523 54.3492C88.242 51.3705 81.3547 46.3681 76.0893 39.8496C75.3828 39.0074 75.0378 38.0826 76.0893 37.2899C77.1409 36.4972 77.8802 37.1743 78.5539 37.9835C83.4754 44.1198 89.9516 48.8093 97.301 51.5583C98.1718 51.8886 98.8454 52.4666 98.5333 53.4244C98.3032 53.9859 97.646 54.3657 97.2846 54.7456Z" fill="#FDDE6A"/>
<path d="M28.0469 63.5807C27.5704 63.1678 26.9461 62.9036 26.8475 62.4907C26.7796 62.1938 26.7708 61.8862 26.8215 61.5858C26.8723 61.2854 26.9816 60.998 27.1433 60.7402C28.3098 59.1879 29.6735 57.7842 30.873 56.2483C34.6335 51.6695 37.3281 46.3036 38.7596 40.5432C39.0224 39.4367 39.5318 38.644 40.7476 38.8917C41.9635 39.1395 41.9306 40.1138 41.7006 41.1542C39.9783 47.9517 36.6916 54.2476 32.1052 59.5347C31.2837 60.542 30.4622 61.5329 29.5257 62.4742C29.0699 62.8907 28.5746 63.2613 28.0469 63.5807Z" fill="#FDDE6A"/>
<path d="M1.08432 38.2808C0.755708 37.9505 0.131352 37.6202 0.0163391 37.1578C-0.0293816 36.57 0.133614 35.9849 0.476391 35.5064C0.624264 35.2422 1.08432 35.1266 1.42935 34.9944C2.94225 34.4962 4.2683 33.5466 5.23103 32.2722C6.19375 30.9977 6.74748 29.4588 6.81853 27.8602C7.00331 24.0039 7.94123 20.2219 9.57884 16.7296C9.8143 16.1922 10.2106 15.7419 10.7125 15.4414C10.9686 15.3754 11.2367 15.3725 11.4942 15.4328C11.7516 15.4932 11.9907 15.6151 12.1913 15.7882C12.3687 16.0196 12.4907 16.2889 12.5477 16.5753C12.6047 16.8618 12.5952 17.1576 12.5199 17.4397C10.4825 21.205 10.2689 25.3831 9.6117 29.4621C9.33433 31.4108 8.51003 33.2397 7.23543 34.7343C5.96083 36.2289 4.28875 37.3274 2.41518 37.901C2.07014 38.0331 1.75796 38.0991 1.08432 38.2808Z" fill="#FDDE6A"/>
<path d="M39.5481 33.6398C39.3929 31.4467 39.9199 29.2593 41.0562 27.3805C42.1924 25.5017 43.8817 24.0244 45.8902 23.1532C47.4716 22.3984 49.2002 22.0068 50.9508 22.0068C52.7014 22.0068 54.43 22.3984 56.0113 23.1532C57.0136 23.5991 57.753 24.2762 57.2272 25.3992C56.7014 26.5221 55.7485 26.3735 54.7298 25.9111C50.5072 23.9954 45.5452 25.3166 43.6721 29.0653C43.0933 30.626 42.7339 32.2601 42.6041 33.9206C42.5713 34.5256 42.5713 35.1321 42.6041 35.7371C42.6139 35.9378 42.5813 36.1382 42.5083 36.3252C42.4354 36.5122 42.3238 36.6816 42.1809 36.822C42.0381 36.9625 41.8672 37.0709 41.6796 37.1401C41.492 37.2093 41.2919 37.2377 41.0925 37.2234C40.1231 37.2234 39.6959 36.5794 39.6138 35.6876C39.5316 34.7958 39.5481 34.3334 39.5481 33.6398Z" fill="#FDDE6A"/>
<path d="M33.2055 82.0601C32.7619 81.7464 32.1868 81.5482 32.0225 81.1684C31.818 80.6713 31.818 80.113 32.0225 79.616C32.3202 79.1449 32.705 78.7357 33.1562 78.4105C37.6675 74.2388 41.6765 69.5497 45.1011 64.4393C45.6597 63.5641 46.3827 62.9695 47.3849 63.6301C48.3872 64.2907 48.19 65.2815 47.5821 66.1733C43.8272 71.7378 39.4134 76.8229 34.4378 81.317C34.0499 81.6011 33.6375 81.8498 33.2055 82.0601Z" fill="#FDDE6A"/>
<path d="M25.4996 49.3454C25.2687 49.813 24.9994 50.2604 24.6945 50.683C20.7195 55.2128 16.0557 59.081 10.8765 62.144L10.3836 62.4082C9.47991 62.8706 8.62553 62.8871 8.11619 61.8963C7.60685 60.9054 8.11619 60.2448 8.97057 59.7164C12.0102 57.586 15.0663 55.4722 17.958 53.1106C19.601 51.7565 21.0469 50.0225 22.6571 48.5527C22.8874 48.3717 23.1514 48.2389 23.4337 48.1624C23.7159 48.0858 24.0105 48.0669 24.3001 48.1068C24.7602 48.2059 25.1052 48.9325 25.4996 49.3454Z" fill="#FDDE6A"/>
<path d="M91.9114 63.5968C91.9114 65.1161 90.8927 65.8263 89.7919 65.2483C88.6103 64.7123 87.473 64.0828 86.3908 63.3656C83.614 61.483 80.8866 59.5508 78.1756 57.6186C77.3376 57.0241 76.8118 56.2149 77.5348 55.2571C78.2577 54.2993 79.1778 54.6295 80.0815 55.2571C83.6469 57.6847 87.2616 60.0462 90.827 62.4739C91.2255 62.8102 91.5888 63.1864 91.9114 63.5968Z" fill="#FDDE6A"/>
<path d="M82.4313 73.9848C82.012 73.8042 81.6058 73.5945 81.2154 73.3573L72.5073 67.0984C71.6529 66.4873 71.1436 65.6946 71.8665 64.7368C72.5895 63.779 73.4274 64.0267 74.2982 64.7368C77.19 66.8396 80.0982 68.9094 83.0228 70.9462C83.7621 71.4747 84.2058 72.1187 83.7621 72.9444C83.4993 73.3903 82.8585 73.7041 82.4313 73.9848Z" fill="#FDDE6A"/>
<path d="M17.5972 72.5477C17.1864 72.1678 16.4635 71.8376 16.4142 71.4082C16.3841 71.0846 16.4228 70.7583 16.5276 70.4508C16.6324 70.1433 16.8009 69.8617 17.0221 69.6246C18.5501 68.2705 20.3082 67.0814 21.8198 65.8098C22.4934 65.2483 23.1342 64.6373 23.7914 64.0593C23.9317 63.9008 24.1038 63.7739 24.2964 63.687C24.4889 63.6001 24.6976 63.5552 24.9087 63.5552C25.1198 63.5552 25.3285 63.6001 25.5211 63.687C25.7136 63.7739 25.8857 63.9008 26.026 64.0593C26.1917 64.2108 26.3202 64.3989 26.4012 64.6088C26.4822 64.8187 26.5136 65.0447 26.4929 65.2689C26.4722 65.493 26.3999 65.7093 26.2818 65.9007C26.1637 66.092 26.003 66.2531 25.8124 66.3713C23.5231 68.276 21.2173 70.1476 18.8952 71.9862C18.4828 72.2176 18.0479 72.4058 17.5972 72.5477Z" fill="#FDDE6A"/>
<path d="M4.81415 55.1419C5.0528 54.7839 5.34042 54.4615 5.66853 54.1841C7.55802 52.8299 9.48038 51.5418 11.3863 50.2372C12.2243 49.6592 13.0294 49.5436 13.7194 50.4354C13.8526 50.6001 13.9473 50.7927 13.9966 50.999C14.0459 51.2054 14.0486 51.4202 14.0045 51.6277C13.9604 51.8352 13.8705 52.0302 13.7416 52.1982C13.6126 52.3663 13.4479 52.5031 13.2594 52.5987C11.2549 54.019 9.25036 55.4392 7.16369 56.7438C5.96427 57.4705 4.78128 56.7769 4.81415 55.1419Z" fill="#FDDE6A"/>
</g>
</svg>
