<svg xmlns="http://www.w3.org/2000/svg" xmlns:xlink="http://www.w3.org/1999/xlink" viewBox="0 0 36.62 27.6"><defs><style>.cls-1{fill:#fff;}.cls-2{fill:#e60000;}.cls-3{mask:url(#mask);}</style><mask id="mask" x="0" y="0" width="36.62" height="27.6" maskUnits="userSpaceOnUse"><g id="path-1-inside-1_184_894" data-name="path-1-inside-1 184 894"><path class="cls-1" d="M1,17.55V18c11.58,0,23.07,0,34.61,0V2.52c0-1-.47-1.52-1.54-1.52H2.55C1.47,1,1,1.47,1,2.53ZM17.27,12.5l-1.41.81V6.75l3.6,2.08L21.54,10ZM30.22,24q-.16-.4-.33-.84H34.2a1.25,1.25,0,0,0,1.38-1.11c0-.65,0-1.31,0-2,0-.3,0-.59,0-.89H1v2.37c0,1.12.47,1.59,1.58,1.59H6.73c-.35.87-.67,1.68-1,2.48h0c-.13.36-.19.72.26.88s.65-.12.79-.48l.3-.72c.24-.58.48-1.16.69-1.76a.56.56,0,0,1,.62-.4H28.24a.54.54,0,0,1,.61.43c.25.67.52,1.32.79,2l.12.29c0,.07.06.12.08.18l.08.18c.14.33.45.48.71.29a.78.78,0,0,0,.27-.71C30.71,25.21,30.47,24.63,30.22,24Zm-7.69-2.61H16.88q-1.41,0-2.82,0c-.38,0-.75-.05-.76-.53s.36-.59.77-.59h8.47c.4,0,.78.09.78.58S22.92,21.41,22.53,21.41Z"/></g></mask></defs><title>Ресурс 1</title><g id="Шар_2" data-name="Шар 2"><g id="Шар_1-2" data-name="Шар 1"><path class="cls-2" d="M1,17.55V18c11.58,0,23.07,0,34.61,0V2.52c0-1-.47-1.52-1.54-1.52H2.55C1.47,1,1,1.47,1,2.53ZM17.27,12.5l-1.41.81V6.75l3.6,2.08L21.54,10ZM30.22,24q-.16-.4-.33-.84H34.2a1.25,1.25,0,0,0,1.38-1.11c0-.65,0-1.31,0-2,0-.3,0-.59,0-.89H1v2.37c0,1.12.47,1.59,1.58,1.59H6.73c-.35.87-.67,1.68-1,2.48h0c-.13.36-.19.72.26.88s.65-.12.79-.48l.3-.72c.24-.58.48-1.16.69-1.76a.56.56,0,0,1,.62-.4H28.24a.54.54,0,0,1,.61.43c.25.67.52,1.32.79,2l.12.29c0,.07.06.12.08.18l.08.18c.14.33.45.48.71.29a.78.78,0,0,0,.27-.71C30.71,25.21,30.47,24.63,30.22,24Zm-7.69-2.61H16.88q-1.41,0-2.82,0c-.38,0-.75-.05-.76-.53s.36-.59.77-.59h8.47c.4,0,.78.09.78.58S22.92,21.41,22.53,21.41Z"/><g class="cls-3"><path class="cls-2" d="M1,18H0v1H1Zm34.61,0v1h1V18Zm-19.76-4.7h-1v1.74l1.5-.87Zm1.41-.81-.5-.87ZM15.86,6.75l.5-.86L14.86,5V6.75Zm3.6,2.08L20,8h0ZM21.54,10l.5.87,1.5-.87L22,9.17Zm8.35,13.15v-1H28.42L29,23.55Zm.33.84.93-.38h0Zm4-.85v1h0Zm1.38-1.11-1-.06h0Zm0-2,1,0h0Zm0-.89h1v-1h-1ZM1,19.21v-1H0v1Zm5.73,4,.93.37.54-1.37H6.73Zm-1,2.48-.92-.37h0Zm0,0-.93-.37h0Zm.26.88.36-.93h0Zm.79-.48.93.38h0Zm.3-.72.92.38H8Zm.69-1.76-.93-.35h0Zm.62-.4v-1h0Zm19.85,0v-1h0Zm.61.43-.94.33h0Zm.79,2,.93-.38h0Zm.12.29-.92.38v0Zm.16.36.91-.41h0Zm.71.29-.56-.82h0Zm.27-.71-.95.31h0Zm-14-4.4v-1h0Zm-2.82,0v1h0Zm-.76-.53-1,0h0ZM2,18v-.48H0V18Zm33.61-1c-11.54,0-23,0-34.61,0v2c11.58,0,23.07,0,34.61,0Zm-1,.52V18h2v-.48Zm0-15v15h2v-15ZM34.08,2c.42,0,.49.09.47.08s.07,0,.07.44h2A2.56,2.56,0,0,0,36,.65,2.6,2.6,0,0,0,34.08,0ZM2.55,2H34.08V0H2.55ZM2,2.53c0-.41.09-.48.07-.46A1.13,1.13,0,0,1,2.55,2V0A2.56,2.56,0,0,0,.67.66,2.56,2.56,0,0,0,0,2.53Zm0,15v-15H0v15Zm14.35-3.37,1.41-.82-1-1.73-1.41.82Zm-1.5-7.43v6.56h2V6.75ZM20,8l-3.6-2.08-1,1.72C16.56,8.32,17.75,9,19,9.7ZM22,9.17,20,8,19,9.7,21,10.9Zm-4.27,4.19L22,10.9,21,9.17l-4.27,2.46ZM29,23.55l.35.85,1.85-.76-.33-.82Zm.94-1.37h0v2h0Zm4.31,0H29.89v2h4.32Zm.38-.16a.06.06,0,0,1,0,0s0,0,0,0a.59.59,0,0,1-.35.09l0,2a2.24,2.24,0,0,0,2.36-2.06Zm0-1.9c0,.67,0,1.28,0,1.89l2,.12c0-.7,0-1.39,0-2Zm0-.9c0,.3,0,.61,0,.9l2,0c0-.29,0-.58,0-.87ZM1,20.21H35.59v-2H1Zm1,1.37V19.21H0v2.37Zm.58.59a1.75,1.75,0,0,1-.42,0l-.07,0h0a.15.15,0,0,1,0-.07,1.34,1.34,0,0,1,0-.43H0A2.62,2.62,0,0,0,.66,23.5a2.61,2.61,0,0,0,1.92.67Zm4.15,0H2.58v2H6.73ZM6.66,26l1-2.48L5.8,22.8l-1,2.48Zm0,0h0l-1.85-.74h0Zm-.32-.42a.36.36,0,0,1,.15.11.6.6,0,0,1,.14.29.26.26,0,0,1,0,.11s0,0,0-.11L4.8,25.3a1.94,1.94,0,0,0-.14,1A1.43,1.43,0,0,0,5,27a1.68,1.68,0,0,0,.65.43Zm-.48.08-.05.09s0,0,.08-.07a.52.52,0,0,1,.28-.12.48.48,0,0,1,.18,0l-.72,1.87a1.48,1.48,0,0,0,1.47-.19,2,2,0,0,0,.61-.85Zm.3-.73c-.1.24-.21.48-.31.73l1.86.75c.09-.24.19-.48.29-.72Zm.67-1.71c-.2.56-.43,1.12-.67,1.71L8,25.71c.24-.58.49-1.18.72-1.8Zm1.56-1.07a1.69,1.69,0,0,0-.91.23,1.56,1.56,0,0,0-.64.82l1.87.71a.71.71,0,0,1-.18.17c-.14.09-.25.07-.14.07Zm19.85,0H8.39v2H28.25Zm1.55,1.09a1.71,1.71,0,0,0-.57-.81,1.66,1.66,0,0,0-1-.28v2c.09,0,0,0-.19-.09s-.17-.23-.14-.15Zm.78,1.94c-.28-.66-.54-1.3-.79-2L27.91,24c.26.69.54,1.36.81,2Zm.12.29-.12-.29L28.72,26l.12.28Zm.07.17a1.13,1.13,0,0,0-.09-.2l-1.82.83c0,.05,0,.1.07.16Zm.07.16-.07-.16-1.84.79a1.29,1.29,0,0,1,.09.2Zm-.77-.11a.48.48,0,0,1,.27-.1.71.71,0,0,1,.3,0,.37.37,0,0,1,.2.17L29,26.64a1.56,1.56,0,0,0,.82.84,1.4,1.4,0,0,0,1.38-.14Zm-.11.41a.74.74,0,0,1,0-.25s0,0,0,0,0,0,0,0a.42.42,0,0,1,.14-.13l1.13,1.65a1.66,1.66,0,0,0,.59-.8,1.63,1.63,0,0,0,.06-1.06ZM29.3,24.4c.25.61.47,1.16.65,1.72l1.9-.62c-.2-.64-.46-1.25-.7-1.86Zm-11-2h4.24v-2H18.29Zm-1.41,0h1.41v-2H16.88Zm-2.81,0c.93,0,1.87,0,2.81,0v-2c-.94,0-1.89,0-2.83,0Zm-1.77-1.5a1.59,1.59,0,0,0,.21.76,1.38,1.38,0,0,0,.58.55,2.16,2.16,0,0,0,1,.19v-2h-.15l.08,0a.65.65,0,0,1,.24.23.38.38,0,0,1,.07.2Zm1.77-1.62a2,2,0,0,0-1.06.26,1.49,1.49,0,0,0-.71,1.36l2-.05a.42.42,0,0,1-.05.17.58.58,0,0,1-.2.23l-.09,0h.11Zm8.47,0H14.07v2h8.47Zm1.78,1.58a1.67,1.67,0,0,0-.18-.77,1.46,1.46,0,0,0-.56-.57,2.1,2.1,0,0,0-1-.24v2h.12l-.08,0a.51.51,0,0,1-.2-.21.36.36,0,0,1-.06-.18Zm-1.79,1.54a2.29,2.29,0,0,0,1-.17,1.48,1.48,0,0,0,.62-.56,1.64,1.64,0,0,0,.2-.81h-2a.28.28,0,0,1,0-.06.53.53,0,0,1,.06-.14.57.57,0,0,1,.26-.24c.06,0,.1,0,.06,0h-.18Z"/></g></g></g></svg>