<svg width="18" height="18" viewBox="0 0 18 18" fill="none" xmlns="http://www.w3.org/2000/svg">
<path fill-rule="evenodd" clip-rule="evenodd" d="M6.50016 0.75C6.91437 0.75 7.25016 1.08579 7.25016 1.5V2.63177C7.94782 2.64436 8.64126 2.6745 9.33005 2.72176C10.0902 2.77392 10.8447 2.84693 11.593 2.94023C12.004 2.99149 12.2956 3.36624 12.2444 3.77727C12.1931 4.1883 11.8184 4.47996 11.4074 4.4287C10.894 4.36469 10.3776 4.31059 9.8582 4.26659C9.36669 6.13553 8.54065 7.8683 7.44809 9.39723C7.69131 9.68744 7.94588 9.96785 8.21114 10.2378C8.50148 10.5332 8.49735 11.008 8.20192 11.2984C7.9065 11.5887 7.43164 11.5846 7.1413 11.2892C6.92082 11.0648 6.70699 10.8339 6.50015 10.5967C5.19832 12.0896 3.61967 13.3345 1.84438 14.2516C1.47638 14.4417 1.02393 14.2975 0.833818 13.9295C0.643706 13.5615 0.78792 13.109 1.15593 12.9189C2.84697 12.0453 4.3405 10.8432 5.55223 9.39723C4.84961 8.41395 4.25714 7.34625 3.79298 6.21213C3.63608 5.82878 3.81966 5.39082 4.20301 5.23393C4.58636 5.07704 5.02432 5.26062 5.18121 5.64397C5.53951 6.51944 5.98254 7.35149 6.50015 8.12989C7.30134 6.92499 7.92395 5.59135 8.33027 4.1669C7.72377 4.13907 7.11363 4.125 6.50016 4.125C4.83795 4.125 3.20022 4.22828 1.59296 4.4287C1.18193 4.47996 0.807175 4.1883 0.75592 3.77727C0.704666 3.36624 0.996321 2.99149 1.40735 2.94023C2.8336 2.76238 4.28253 2.65826 5.75016 2.63177V1.5C5.75016 1.08579 6.08594 0.75 6.50016 0.75ZM12.1252 6.375C12.4165 6.375 12.6816 6.54378 12.8048 6.80784L17.1798 16.1828C17.355 16.5582 17.1927 17.0045 16.8173 17.1796C16.442 17.3548 15.9957 17.1925 15.8205 16.8172L14.8558 14.75H9.39447L8.42979 16.8172C8.25463 17.1925 7.80835 17.3548 7.43299 17.1796C7.05764 17.0045 6.89535 16.5582 7.07052 16.1828L11.4455 6.80784C11.5687 6.54378 11.8338 6.375 12.1252 6.375ZM10.0945 13.25H14.1558L12.1252 8.89853L10.0945 13.25Z" fill="#999999"/>
</svg>
