<svg xmlns="http://www.w3.org/2000/svg" xmlns:xlink="http://www.w3.org/1999/xlink" viewBox="0 0 35.61 27.2"><defs><style>.cls-1{fill:#fff;}.cls-2{fill:#e60000;}.cls-3{mask:url(#mask);}</style><mask id="mask" x="0" y="0" width="35.61" height="27.2" maskUnits="userSpaceOnUse"><g id="path-1-inside-1_184_909" data-name="path-1-inside-1 184 909"><path class="cls-1" d="M16.91,6.59h3.6A1.38,1.38,0,0,0,22,5.08q0-1.26,0-2.52A1.41,1.41,0,0,0,20.45,1h-5.3A1.43,1.43,0,0,0,13.6,2.57V5a1.4,1.4,0,0,0,1.56,1.55ZM28.71,9.4H6.93a2.83,2.83,0,0,0-3.12,3.12c0,.88-.21,1.08-1.08,1.08H2.36A1.37,1.37,0,0,0,1,15c0,1.87,0,3.75,0,5.62A1.36,1.36,0,0,0,2.41,22h.53c.61,0,.85.25.88.86v.48a2.77,2.77,0,0,0,2.9,2.86h4.09a5.53,5.53,0,0,0,3.33-1.09l1-.79,1-.79a2.35,2.35,0,0,1,3.17,0l.94.7c.39.3.79.6,1.2.89a4.56,4.56,0,0,0,2.44,1c1.37.06,2.75.07,4.13.08h.59a2.8,2.8,0,0,0,3.08-3C31.8,22.16,32,22,33,22a1.44,1.44,0,0,0,1.65-1.62V15.23A1.45,1.45,0,0,0,33,13.6c-1,0-1.16-.17-1.17-1.15A2.82,2.82,0,0,0,28.71,9.4Z"/></g></mask></defs><title>Ресурс 1</title><g id="Шар_2" data-name="Шар 2"><g id="Шар_1-2" data-name="Шар 1"><path class="cls-2" d="M16.91,6.59h3.6A1.38,1.38,0,0,0,22,5.08q0-1.26,0-2.52A1.41,1.41,0,0,0,20.45,1h-5.3A1.43,1.43,0,0,0,13.6,2.57V5a1.4,1.4,0,0,0,1.56,1.55ZM28.71,9.4H6.93a2.83,2.83,0,0,0-3.12,3.12c0,.88-.21,1.08-1.08,1.08H2.36A1.37,1.37,0,0,0,1,15c0,1.87,0,3.75,0,5.62A1.36,1.36,0,0,0,2.41,22h.53c.61,0,.85.25.88.86v.48a2.77,2.77,0,0,0,2.9,2.86h4.09a5.53,5.53,0,0,0,3.33-1.09l1-.79,1-.79a2.35,2.35,0,0,1,3.17,0l.94.7c.39.3.79.6,1.2.89a4.56,4.56,0,0,0,2.44,1c1.37.06,2.75.07,4.13.08h.59a2.8,2.8,0,0,0,3.08-3C31.8,22.16,32,22,33,22a1.44,1.44,0,0,0,1.65-1.62V15.23A1.45,1.45,0,0,0,33,13.6c-1,0-1.16-.17-1.17-1.15A2.82,2.82,0,0,0,28.71,9.4Z"/><g class="cls-3"><path class="cls-2" d="M16.91,6.59v-1h0Zm1.77,0v0Zm1.83,0v1h0ZM22,5.08h0Zm0-2.52H21v0ZM15.15,1V0h0ZM13.6,2.57h0Zm1.56,4v-1h0ZM3.81,12.52h0ZM2.6,13.6l0-1h0Zm-.24,0,.07,1h0ZM1,15H1ZM1,20.6H1ZM2.41,22l-.05,1h.05Zm.53,0,0-1h0Zm.88.86h1V22.8Zm0,.48h0Zm2.9,2.86v-1h0Zm4.09,0v-1h0Zm3.33-1.09.59.8h0Zm1-.79-.6-.8h0Zm1-.79-.6-.8h0Zm3.17,0-.6.79h0Zm.94.7-.61.8h0Zm1.2.89.59-.8h0Zm2.44,1,.05-1h0Zm4.13.08v1h0Zm.59,0v1h0Zm3.08-3h0ZM33,13.6v1h0Zm-1.17-1.15h0Zm-14-6.86H16.9v2h.87Zm.91,0h-.91v2h.9Zm1.81,0H18.69v2h1.84Zm.5-.52c0,.3-.08.39-.11.41s-.11.11-.4.11l0,2a2.51,2.51,0,0,0,1.79-.7A2.56,2.56,0,0,0,23,5.09Zm0-2.49q0,1.25,0,2.49l2,0c0-.84,0-1.69,0-2.54ZM20.45,2a.66.66,0,0,1,.44.11.7.7,0,0,1,.11.45h2A2.58,2.58,0,0,0,22.31.7,2.58,2.58,0,0,0,20.45,0Zm-5.3,0h5.3V0h-5.3Zm-.55.58c0-.33.09-.44.12-.47A.66.66,0,0,1,15.16,2l0-2a2.61,2.61,0,0,0-1.85.71,2.66,2.66,0,0,0-.69,1.85ZM14.6,5V2.57h-2V5Zm.57.55c-.35,0-.45-.09-.47-.11s-.1-.11-.1-.44h-2a2.56,2.56,0,0,0,.69,1.86,2.63,2.63,0,0,0,1.86.69Zm1.73,0H15.17l0,2h1.77Zm.89,4.81H28.71v-2H17.79Zm-10.86,0H17.79v-2H6.93ZM4.81,12.53a2.24,2.24,0,0,1,.53-1.62,2.16,2.16,0,0,1,1.59-.51v-2a4.12,4.12,0,0,0-3,1.1,4.2,4.2,0,0,0-1.11,3ZM2.73,14.6a2.14,2.14,0,0,0,1.57-.5,2.18,2.18,0,0,0,.51-1.57l-2,0c0,.09,0,.16,0,.22a.51.51,0,0,0,0,.1s0,0,0,0l.08-.12L3,12.6l0,0H2.73Zm-.15,0h.15v-2h-.1Zm-.14,0h.14l0-2H2.28ZM2,15a.37.37,0,0,1,.1-.28.48.48,0,0,1,.32-.12l-.14-2A2.38,2.38,0,0,0,0,15Zm0,5.59c0-1.86,0-3.74,0-5.6H0c0,1.87,0,3.75,0,5.63Zm.44.4a.51.51,0,0,1-.35-.12A.36.36,0,0,1,2,20.6H0a2.37,2.37,0,0,0,.69,1.7A2.51,2.51,0,0,0,2.36,23Zm.48,0H2.41v2h.53ZM4.82,22.8a1.88,1.88,0,0,0-.53-1.31A1.93,1.93,0,0,0,3,21L2.9,23H3s0,0,0,0l0,0-.08-.06-.07-.08,0-.05v0a.25.25,0,0,1,0,.1Zm0,.53v-.48h-2v.48Zm1.9,1.86a1.79,1.79,0,0,1-1.9-1.88l-2,0A3.93,3.93,0,0,0,3.94,26.1a3.9,3.9,0,0,0,2.77,1.09Zm4.08,0H6.72v2h4.11Zm2.75-.9a4.52,4.52,0,0,1-2.74.9v2a6.51,6.51,0,0,0,3.92-1.29Zm1-.78-1.05.79,1.2,1.6,1-.79Zm1.05-.79-1.05.79,1.2,1.6,1.05-.78Zm4.37,0a3.6,3.6,0,0,0-2.18-.83,3.65,3.65,0,0,0-2.19.81l1.19,1.61a1.72,1.72,0,0,1,1-.42,1.72,1.72,0,0,1,1,.42Zm.94.7L20,22.73l-1.18,1.61.92.7Zm1.19.88L21,23.44,19.74,25l1.22.9Zm1.9.79a3.52,3.52,0,0,1-1.9-.78L21,25.93a5.46,5.46,0,0,0,3,1.17Zm4.08.08c-1.38,0-2.73,0-4.08-.08l-.09,2c1.39.07,2.79.08,4.16.09Zm.59,0h-.59v2h.59Zm2.08-2.05a2.1,2.1,0,0,1-.52,1.54,2.16,2.16,0,0,1-1.56.51v2a3.81,3.81,0,0,0,4.09-4ZM33,21a4.31,4.31,0,0,0-.8.06,1.7,1.7,0,0,0-.85.44,1.73,1.73,0,0,0-.45.85,5.4,5.4,0,0,0-.07.8l2,0c0-.11,0-.2,0-.27s0-.11,0-.13,0,0-.11.15-.19.11-.15.11a.31.31,0,0,1,.13,0H33Zm.65-.62c0,.39-.1.49-.12.51S33.36,21,33,21v2a2.69,2.69,0,0,0,1.94-.69,2.62,2.62,0,0,0,.71-1.93Zm0-5.14v5.14h2V15.23ZM33,14.6c.4,0,.52.1.53.12s.12.11.12.51h2a2.66,2.66,0,0,0-.71-1.94A2.69,2.69,0,0,0,33,12.6Zm-2.17-2.14a5.27,5.27,0,0,0,.07.79,1.65,1.65,0,0,0,.45.85,1.6,1.6,0,0,0,.85.43,3.47,3.47,0,0,0,.79.07l0-2H32.7l-.14,0a.61.61,0,0,1,.26.26s0-.06,0-.13,0-.15,0-.26ZM28.71,10.4a2.07,2.07,0,0,1,1.55.52,2,2,0,0,1,.53,1.54l2,0a4.08,4.08,0,0,0-1.12-2.95,4.09,4.09,0,0,0-3-1.09Z"/></g></g></g></svg>