<svg width="22" height="22" viewBox="0 0 22 22" fill="none" xmlns="http://www.w3.org/2000/svg">
<path d="M14.3129 11.6338C15.1882 10.9451 15.8271 10.0007 16.1408 8.93198C16.4544 7.86324 16.4271 6.72334 16.0627 5.67084C15.6983 4.61834 15.0149 3.70559 14.1076 3.05958C13.2003 2.41356 12.1142 2.06641 11.0004 2.06641C9.88657 2.06641 8.80047 2.41356 7.89316 3.05958C6.98585 3.70559 6.30246 4.61834 5.93805 5.67084C5.57365 6.72334 5.54636 7.86324 5.85997 8.93198C6.17359 10.0007 6.81251 10.9451 7.68786 11.6338C6.18793 12.2347 4.87919 13.2314 3.90116 14.5177C2.92313 15.8039 2.31247 17.3314 2.13429 18.9374C2.12139 19.0546 2.13172 19.1733 2.16467 19.2865C2.19763 19.3998 2.25257 19.5055 2.32636 19.5975C2.47538 19.7834 2.69213 19.9024 2.92893 19.9285C3.16574 19.9545 3.40318 19.8854 3.58905 19.7364C3.77491 19.5874 3.89396 19.3706 3.92001 19.1338C4.11606 17.3884 4.9483 15.7765 6.2577 14.6059C7.56711 13.4354 9.26188 12.7883 11.0182 12.7883C12.7746 12.7883 14.4693 13.4354 15.7787 14.6059C17.0881 15.7765 17.9204 17.3884 18.1164 19.1338C18.1407 19.3532 18.2454 19.5558 18.4103 19.7026C18.5752 19.8493 18.7886 19.9298 19.0093 19.9285H19.1075C19.3416 19.9015 19.5555 19.7832 19.7027 19.5992C19.8498 19.4152 19.9183 19.1806 19.8932 18.9463C19.7142 17.3358 19.1003 15.8043 18.1172 14.5161C17.1341 13.2279 15.819 12.2316 14.3129 11.6338ZM11.0004 10.9999C10.294 10.9999 9.6035 10.7904 9.01619 10.398C8.42887 10.0056 7.97111 9.44778 7.70079 8.79518C7.43048 8.14259 7.35975 7.42449 7.49756 6.73171C7.63536 6.03892 7.97551 5.40255 8.47498 4.90307C8.97446 4.4036 9.61082 4.06346 10.3036 3.92565C10.9964 3.78785 11.7145 3.85857 12.3671 4.12889C13.0197 4.3992 13.5775 4.85696 13.9699 5.44428C14.3623 6.03159 14.5718 6.72209 14.5718 7.42846C14.5718 8.37566 14.1955 9.28406 13.5257 9.95384C12.856 10.6236 11.9476 10.9999 11.0004 10.9999Z" fill="#535353"/>
</svg>
