<svg width="24" height="24" viewBox="0 0 24 24" fill="none" xmlns="http://www.w3.org/2000/svg">
<path d="M11.4404 0.472339C5.34436 0.762339 0.533817 5.83921 0.552176 11.9419C0.557801 13.8007 1.00655 15.5552 1.79827 17.1056L0.582879 23.0052C0.517176 23.3244 0.804989 23.6038 1.12202 23.5287L6.90288 22.1591C8.38811 22.8991 10.0563 23.3262 11.8218 23.3532C18.0525 23.4484 23.2476 18.5012 23.4421 12.2728C23.6501 5.5964 18.1399 0.153198 11.4404 0.472339ZM18.3383 18.2449C16.6454 19.9378 14.3943 20.8702 12 20.8702C10.5981 20.8702 9.25577 20.5556 8.01046 19.9354L7.20561 19.5343L3.66108 20.3739L4.4071 16.7523L4.01061 15.9755C3.36405 14.7094 3.03624 13.3405 3.03624 11.9065C3.03624 9.5121 3.96866 7.26125 5.66155 5.5682C7.33936 3.89023 9.6271 2.94289 12.0001 2.94289C14.3942 2.94289 16.6453 3.87531 18.3382 5.5682C20.0311 7.26109 20.9635 9.51218 20.9635 11.9062C20.9637 14.2794 20.0162 16.567 18.3383 18.2449Z" fill="white"/>
<path d="M17.5558 14.3892L15.3383 13.7525C15.047 13.669 14.7329 13.7518 14.5205 13.9682L13.9781 14.5205C13.7495 14.7536 13.4027 14.8284 13.1 14.706C12.051 14.2815 9.84438 12.3194 9.28118 11.3383C9.11837 11.0552 9.14532 10.7015 9.34501 10.4429L9.81829 9.83044C10.0038 9.59059 10.0428 9.26817 9.92024 8.99083L8.98735 6.88083C8.76391 6.37551 8.11813 6.22833 7.69618 6.5852C7.07735 7.10872 6.34305 7.90395 6.25391 8.7852C6.09649 10.3389 6.7629 12.2972 9.28219 14.6489C12.1929 17.3659 14.5239 17.7246 16.0418 17.357C16.9027 17.1486 17.5906 16.3129 18.0245 15.6284C18.3207 15.1615 18.0866 14.5418 17.5558 14.3892Z" fill="white"/>
</svg>
