<svg id="Шар_1" data-name="Шар 1" xmlns="http://www.w3.org/2000/svg" xmlns:xlink="http://www.w3.org/1999/xlink" viewBox="0 0 50 50"><defs><style>.cls-1{fill:url(#Градієнт_без_назви_2);}</style><linearGradient id="Градієнт_без_назви_2" x1="3.67" y1="45.46" x2="43.6" y2="5.53" gradientTransform="matrix(1, 0, 0, -1, -2.8, 51.22)" gradientUnits="userSpaceOnUse"><stop offset="0" stop-color="#fcc556"/><stop offset="0.71" stop-color="#e89d37"/><stop offset="0.77" stop-color="#fdcf74"/><stop offset="0.83" stop-color="#e89d37"/><stop offset="1" stop-color="#bd6d15"/></linearGradient></defs><title>favicon</title><path class="cls-1" d="M5.88,49.15v-.8a8.6,8.6,0,0,0,2.88-.59,5.27,5.27,0,0,0,1.9-1.47A6.1,6.1,0,0,0,12,43.41,31.36,31.36,0,0,0,12.33,38V11.88A31.36,31.36,0,0,0,12,6.49a6.1,6.1,0,0,0-1.33-2.88A4.9,4.9,0,0,0,8.72,2.12a9.5,9.5,0,0,0-2.84-.57V.75H30.19a12,12,0,0,1,5.84,2,9.47,9.47,0,0,1,3.09,3.72,12,12,0,0,1,1.1,5.17,11.46,11.46,0,0,1-2.51,7.63,8.05,8.05,0,0,1-2,1.83,22.53,22.53,0,0,1-3.31,1.62A24.4,24.4,0,0,1,37,23.93a10.3,10.3,0,0,1,3,1.88A12.66,12.66,0,0,1,43,30.41a16,16,0,0,1,1.09,6,14.94,14.94,0,0,1-1.12,6,11,11,0,0,1-3.13,4.31,10.34,10.34,0,0,1-4.34,2,32.25,32.25,0,0,1-7.07.57ZM19.12,1.84V22.9h2.49a23.3,23.3,0,0,0,3.64-.28A12,12,0,0,0,27.89,22a6.86,6.86,0,0,0,1.84-1.05,8.88,8.88,0,0,0,2.42-3.42A12.35,12.35,0,0,0,33,12.76a14.86,14.86,0,0,0-.88-5.12,9.35,9.35,0,0,0-2.33-3.78,6.59,6.59,0,0,0-2.92-1.59A20.9,20.9,0,0,0,22,1.84Zm0,22.17V38.62a24.07,24.07,0,0,0,.31,4.24,7.91,7.91,0,0,0,1.08,2.76A6,6,0,0,0,25.89,48a10.15,10.15,0,0,0,7.85-3.12,12.05,12.05,0,0,0,2.9-8.52,17.74,17.74,0,0,0-.9-5.73,9.67,9.67,0,0,0-2.4-4.05C31.55,25,28.57,24,24.64,24Z"/></svg>