<svg width="30" height="30" viewBox="0 0 30 30" fill="none" xmlns="http://www.w3.org/2000/svg">
<g clip-path="url(#clip0_218_16483)">
<circle cx="15" cy="15" r="12.75" fill="white"/>
<path d="M20.76 8.52C21 8.76 21.12 9.12 21.12 9.48C21.12 9.84 21 10.2 20.76 10.44C20.52 10.56 20.16 10.8 19.92 10.8C19.56 10.8 19.2 10.68 18.96 10.44C18.72 10.2 18.6 9.84 18.6 9.48C18.6 9.12 18.72 8.76 18.96 8.52C19.2 8.28 19.56 8.16 19.92 8.16C20.16 8.16 20.52 8.28 20.76 8.52ZM15 10.32C12.36 10.32 10.32 12.48 10.32 15C10.32 17.52 12.48 19.68 15 19.68C17.64 19.68 19.68 17.52 19.68 15C19.68 12.48 17.64 10.32 15 10.32ZM30 15C30 23.28 23.28 30 15 30C6.72 30 0 23.28 0 15C0 6.72 6.72 0 15 0C23.28 0 30 6.72 30 15ZM23.88 12.24C23.88 10.56 23.28 9.12 22.08 7.92C20.88 6.72 19.44 6.12 17.76 6.12H12.12C10.44 6.12 9 6.72 7.8 7.92C6.6 9.12 6 10.56 6 12.24V17.88C6 19.56 6.6 21 7.8 22.2C9 23.4 10.44 24 12.12 24H17.76C19.44 24 20.88 23.4 22.08 22.2C23.28 21 23.88 19.56 23.88 17.88V12.24Z" fill="#AF24D1"/>
</g>
<defs>
<clipPath id="clip0_218_16483">
<rect width="30" height="30" fill="white"/>
</clipPath>
</defs>
</svg>
