<svg width="18" height="16" viewBox="0 0 18 16" fill="none" xmlns="http://www.w3.org/2000/svg">
<path d="M8.30769 1.39069C6.90881 0.510592 5.24535 0 3.46154 0C2.41087 0 1.40082 0.177236 0.461599 0.503512C0.184959 0.599614 0 0.856675 0 1.14506V14.0734C0 14.2943 0.109087 14.5014 0.292578 14.6289C0.476068 14.7565 0.711127 14.7885 0.923017 14.7149C1.71611 14.4394 2.57023 14.2892 3.46154 14.2892C5.30309 14.2892 6.99069 14.9308 8.30769 16V1.39069Z" fill="#999999"/>
<path d="M9.69231 16C11.0093 14.9308 12.6969 14.2892 14.5385 14.2892C15.4298 14.2892 16.2839 14.4394 17.077 14.7149C17.2889 14.7885 17.5239 14.7565 17.7074 14.6289C17.8909 14.5014 18 14.2943 18 14.0734V1.14506C18 0.856675 17.815 0.599614 17.5384 0.503512C16.5992 0.177236 15.5891 0 14.5385 0C12.7547 0 11.0912 0.510592 9.69231 1.39069V16Z" fill="#999999"/>
</svg>
