<svg width="16" height="16" viewBox="0 0 16 16" fill="none" xmlns="http://www.w3.org/2000/svg">
<path fill-rule="evenodd" clip-rule="evenodd" d="M3.625 0C3.90114 0 4.125 0.223858 4.125 0.5V1.875H11.875V0.5C11.875 0.223858 12.0989 0 12.375 0C12.6511 0 12.875 0.223858 12.875 0.5V1.875H13.625C14.9367 1.875 16 2.93832 16 4.25V13.625C16 14.9367 14.9367 16 13.625 16H2.375C1.06332 16 0 14.9367 0 13.625V4.25C0 2.93832 1.06332 1.875 2.375 1.875H3.125V0.5C3.125 0.223858 3.34886 0 3.625 0ZM2.375 2.875C1.61561 2.875 1 3.49061 1 4.25V5.43828C1.38803 5.16229 1.86256 5 2.375 5H13.625C14.1374 5 14.612 5.16229 15 5.43828V4.25C15 3.49061 14.3844 2.875 13.625 2.875H2.375ZM15 7.375C15 6.61561 14.3844 6 13.625 6H2.375C1.61561 6 1 6.61561 1 7.375V13.625C1 14.3844 1.61561 15 2.375 15H13.625C14.3844 15 15 14.3844 15 13.625V7.375Z" fill="#999999"/>
</svg>
