<svg xmlns="http://www.w3.org/2000/svg" xmlns:xlink="http://www.w3.org/1999/xlink" viewBox="0 0 38 28.39"><defs><style>.cls-1{fill:#fff;}.cls-2{fill:#e60000;}.cls-3{mask:url(#mask);}</style><mask id="mask" x="0" y="0" width="38" height="28.39" maskUnits="userSpaceOnUse"><g id="path-1-inside-1_184_904" data-name="path-1-inside-1 184 904"><path class="cls-1" d="M17.82,5.29h2.37c0-.37,0-.74,0-1.1,0-.7,0-1.39,0-2.08A1.19,1.19,0,0,0,17.83,2c0,.76,0,1.52,0,2.29C17.82,4.62,17.82,5,17.82,5.29ZM1.7,17A11.77,11.77,0,0,0,1,20.79C1,20.87,1,21,1,21s0,.32,0,.48A6.16,6.16,0,0,0,9.2,27.05,6,6,0,0,0,13,23.58a5.65,5.65,0,0,1,3.33-3.25,8.47,8.47,0,0,1,4.91-.16,5.42,5.42,0,0,1,3.68,3.31,6.31,6.31,0,0,0,11.93-4c-.78-3-1.62-5.92-2.55-8.84C32.79,6,26.9,4.2,23.32,7.48a1,1,0,0,1-.59.22H15.18a1,1,0,0,1-.63-.23c-3.68-3.33-9.7-1.38-11.06,3.38L3.1,12.17c-.39,1.32-.78,2.64-1.15,4C1.87,16.42,1.79,16.7,1.7,17Zm24.21-2.16.44-.44L26,14.07l-.49-.43A1.22,1.22,0,1,1,27.21,12c.2.2.4.4.63.65l.19.21.27-.31c.21-.24.41-.46.62-.66a1.18,1.18,0,0,1,1.71-.06,1.2,1.2,0,0,1,0,1.76c-.2.21-.42.4-.68.63l-.31.27c.15.14.29.27.43.38s.38.34.55.52a1.2,1.2,0,0,1,.05,1.76A1.18,1.18,0,0,1,28.88,17c-.18-.19-.34-.39-.52-.62L28,16l-.38.41a7.57,7.57,0,0,1-.54.57,1.19,1.19,0,0,1-1.76.1,1.22,1.22,0,0,1,.07-1.81C25.58,15.13,25.73,15,25.91,14.82ZM9,13.25h.44c0-.12,0-.23,0-.34,0-.31,0-.56,0-.83a1.19,1.19,0,1,1,2.38,0c0,.24,0,.47,0,.73s0,.28,0,.42H13a1.2,1.2,0,1,1,0,2.39H11.79V16c0,.24,0,.47,0,.7a1.2,1.2,0,1,1-2.38,0V15.64H8.22a1.2,1.2,0,1,1,0-2.39Z"/></g></mask></defs><title>Ресурс 1</title><g id="Шар_2" data-name="Шар 2"><g id="Шар_1-2" data-name="Шар 1"><path class="cls-2" d="M17.82,5.29h2.37c0-.37,0-.74,0-1.1,0-.7,0-1.39,0-2.08A1.19,1.19,0,0,0,17.83,2c0,.76,0,1.52,0,2.29C17.82,4.62,17.82,5,17.82,5.29ZM1.7,17A11.77,11.77,0,0,0,1,20.79C1,20.87,1,21,1,21s0,.32,0,.48A6.16,6.16,0,0,0,9.2,27.05,6,6,0,0,0,13,23.58a5.65,5.65,0,0,1,3.33-3.25,8.47,8.47,0,0,1,4.91-.16,5.42,5.42,0,0,1,3.68,3.31,6.31,6.31,0,0,0,11.93-4c-.78-3-1.62-5.92-2.55-8.84C32.79,6,26.9,4.2,23.32,7.48a1,1,0,0,1-.59.22H15.18a1,1,0,0,1-.63-.23c-3.68-3.33-9.7-1.38-11.06,3.38L3.1,12.17c-.39,1.32-.78,2.64-1.15,4C1.87,16.42,1.79,16.7,1.7,17Zm24.21-2.16.44-.44L26,14.07l-.49-.43A1.22,1.22,0,1,1,27.21,12c.2.2.4.4.63.65l.19.21.27-.31c.21-.24.41-.46.62-.66a1.18,1.18,0,0,1,1.71-.06,1.2,1.2,0,0,1,0,1.76c-.2.21-.42.4-.68.63l-.31.27c.15.14.29.27.43.38s.38.34.55.52a1.2,1.2,0,0,1,.05,1.76A1.18,1.18,0,0,1,28.88,17c-.18-.19-.34-.39-.52-.62L28,16l-.38.41a7.57,7.57,0,0,1-.54.57,1.19,1.19,0,0,1-1.76.1,1.22,1.22,0,0,1,.07-1.81C25.58,15.13,25.73,15,25.91,14.82ZM9,13.25h.44c0-.12,0-.23,0-.34,0-.31,0-.56,0-.83a1.19,1.19,0,1,1,2.38,0c0,.24,0,.47,0,.73s0,.28,0,.42H13a1.2,1.2,0,1,1,0,2.39H11.79V16c0,.24,0,.47,0,.7a1.2,1.2,0,1,1-2.38,0V15.64H8.22a1.2,1.2,0,1,1,0-2.39Z"/><g class="cls-3"><path class="cls-2" d="M20.19,5.29v1h1v-1Zm-2.37,0h-1v1h1Zm2.38-1.1h0Zm0-2.08,1,0h0ZM19.07,1l.06-1h0ZM17.83,2l-1-.06h0Zm0,2.29h0ZM1,20.79H2v0ZM1.7,17l1,.29h0ZM1,21,0,21H0Zm0,.48-1,0H0ZM9.2,27.05l.32.95h0ZM13,23.58l-.91-.4h0Zm3.33-3.25.34,1h0Zm4.91-.16.24-1h0Zm3.68,3.31.91-.4h0ZM32,27.21l-.22-1h0Zm4.77-7.76-1,.25h0Zm-2.55-8.84-1,.3h0ZM23.32,7.48l-.68-.74h0Zm-.59.22v-1h0Zm-7.55,0v-1h0Zm-.63-.23.68-.74h0ZM3.49,10.85l1,.28h0ZM3.1,12.17l-1-.28h0ZM2,16.13l1,.27h0Zm24.4-1.75.71.71.75-.75L27,13.63Zm-.44.44-.7-.72h0Zm.08-.75.64-.77h0Zm-.49-.43.71-.71h0Zm-.13-1.85-.71-.7h0Zm1.84.16.71-.71h0Zm.63.65.73-.68h0Zm.19.21-.73.68.74.8.73-.81Zm.27-.31-.75-.66h0Zm.62-.66-.69-.72h0Zm1.71-.06.7-.71h0Zm0,1.76.73.69h0Zm-.68.63-.65-.76h0Zm-.31.27-.66-.75-.83.73.81.75Zm.43.38.66-.75h0Zm.55.52.72-.69h0Zm.05,1.76-.7-.72h0ZM28.88,17l-.72.69h0Zm-.52-.62-.78.63h0ZM28,16l.77-.64-.73-.86-.77.82Zm-.38.41.74.67h0Zm-.54.57-.69-.72h0Zm-1.76.1-.7.72h0Zm.07-1.81.72.69h0Zm-16-2v1h1v-1Zm-.44,0v1H9Zm.43-.34h0Zm0-.83,1,.07v0Zm1.2-1.22,0,1h0ZM11.8,12.1l-1,0h0Zm0,.73h0Zm0,.42h-1v1h1Zm.41,0v1h0Zm.74,0,0-1h0Zm0,2.39,0-1h0Zm-.71,0v-1h0Zm-.45,0v-1h-1v1Zm0,.39h0Zm0,.7-1,0h0ZM10.62,18v1h0ZM9.41,16.7h-1Zm0-1.06h1v-1h-1Zm-.44,0v1H9Zm-.75,0-.05,1h0ZM7,14.48l1,0H8Zm1.2-1.23,0-1h0Zm12-9H17.82v2h2.37Zm-1-.1c0,.35,0,.72,0,1.1h2c0-.37,0-.73,0-1.09Zm0-2.05c0,.67,0,1.34,0,2.05h2c0-.7,0-1.4,0-2.11ZM19,2a.2.2,0,0,1,.14.06.1.1,0,0,1,0,.09l2-.07A2.18,2.18,0,0,0,19.13,0Zm-.18,0a0,0,0,0,1,0,0l0,0L18.93,2H19l.08-2a2.16,2.16,0,0,0-2.28,1.94Zm0,2.23c0-.78,0-1.51,0-2.24l-2-.09c0,.79,0,1.58,0,2.35Zm0,1c0-.34,0-.68,0-1l-2,0c0,.33,0,.66,0,1ZM2,20.75a10.87,10.87,0,0,1,.66-3.48L.74,16.7A12.61,12.61,0,0,0,0,20.83Zm0,.3c0-.08,0-.17,0-.26H0c0,.07,0,.14,0,.22Zm0,.41v-.41L0,21c0,.16,0,.35,0,.55ZM8.89,26.1A5.18,5.18,0,0,1,2,21.44l-2,.13A7.17,7.17,0,0,0,9.52,28ZM12,23.18A5,5,0,0,1,8.89,26.1L9.52,28a7,7,0,0,0,4.35-4ZM16,19.39A6.62,6.62,0,0,0,12,23.18l1.83.8a4.61,4.61,0,0,1,2.75-2.7Zm5.47-.2a9.47,9.47,0,0,0-5.47.2l.67,1.89A7.41,7.41,0,0,1,21,21.14Zm4.36,3.89a6.36,6.36,0,0,0-4.35-3.88L21,21.14a4.39,4.39,0,0,1,3,2.75Zm6,3.16a5.44,5.44,0,0,1-6-3.16L24,23.89a7.43,7.43,0,0,0,8.31,4.29Zm4-6.54a5.43,5.43,0,0,1-4,6.53l.45,1.95a7.43,7.43,0,0,0,5.51-9ZM33.3,10.91q1.38,4.35,2.53,8.79l1.94-.51c-.78-3-1.63-5.94-2.57-8.89ZM24,8.22a5.83,5.83,0,0,1,9.31,2.69l1.9-.61c-1.66-5.2-8.39-7.38-12.56-3.56Zm-1.26.48A2,2,0,0,0,24,8.22L22.64,6.74l.06,0h0Zm-7.55,0q3.78,0,7.56,0v-2H15.19Zm-1.31-.5a2,2,0,0,0,1.31.5v-2h0l.06,0ZM4.45,11.12a5.88,5.88,0,0,1,9.43-2.91l1.34-1.48C10.94,2.86,4.08,5.16,2.52,10.57Zm-.39,1.33.39-1.32-1.92-.56c-.13.44-.26.87-.39,1.32ZM2.92,16.4c.36-1.31.75-2.63,1.14-3.95l-1.92-.56c-.39,1.31-.78,2.64-1.15,4Zm-.26.87c.08-.28.17-.57.25-.87L1,15.86c-.08.27-.16.55-.25.84Zm23-3.6-.43.43,1.39,1.44.46-.45Zm-.3,1.16.35.3L27,13.63l-.39-.33Zm-.55-.48c.19.18.38.34.55.48l1.29-1.53a4.51,4.51,0,0,1-.42-.37Zm-.13-3.26A2.13,2.13,0,0,0,24,12.74a2.56,2.56,0,0,0,.78,1.61l1.42-1.42c-.18-.18-.2-.29-.2-.32v0a.32.32,0,0,1,.07-.08Zm3.26.15a2.55,2.55,0,0,0-1.58-.79,2.11,2.11,0,0,0-1.68.64l1.42,1.41a.11.11,0,0,1,.07-.05h0s.15,0,.34.21Zm.65.68c-.23-.24-.43-.46-.65-.68l-1.41,1.42.59.62Zm.19.21-.19-.21L27.1,13.28l.2.21Zm-1.21-.29-.26.3,1.48,1.34.29-.32Zm.67-.72c-.24.24-.46.49-.67.72l1.51,1.32c.21-.24.37-.43.55-.6Zm3.11,0a2.16,2.16,0,0,0-1.56-.63,2.32,2.32,0,0,0-1.54.68l1.38,1.44a.32.32,0,0,1,.22-.12s.05,0,.1.06Zm0,3.16A2.35,2.35,0,0,0,32,12.66a2.14,2.14,0,0,0-.67-1.59l-1.4,1.43c.07.06.07.1.07.12a.36.36,0,0,1-.13.23Zm-.76.7a10,10,0,0,0,.76-.7l-1.45-1.38a7.48,7.48,0,0,1-.61.56Zm-.3.26.3-.26-1.3-1.52-.32.28Zm.43-1.12-.41-.36-1.36,1.46.45.41Zm.61.58a8,8,0,0,0-.61-.58l-1.32,1.51c.2.18.35.31.49.45Zm0,3.17A2.18,2.18,0,0,0,32,16.23a2.34,2.34,0,0,0-.69-1.58L29.86,16a.4.4,0,0,1,.13.24.13.13,0,0,1-.06.11Zm-3.16-.1a2.38,2.38,0,0,0,1.56.73,2.2,2.2,0,0,0,1.6-.63l-1.4-1.44a.21.21,0,0,1-.08.06h0s-.1,0-.23-.14ZM27.58,17c.18.22.37.46.58.68l1.44-1.39c-.14-.15-.28-.32-.47-.55Zm-.3-.36.3.36,1.55-1.26c-.09-.12-.2-.25-.32-.39Zm1.12.43.37-.39-1.46-1.37-.39.42Zm-.59.63c.21-.21.4-.42.59-.63l-1.48-1.34-.49.52Zm-3.15.09a2.12,2.12,0,0,0,1.6.62,2.43,2.43,0,0,0,1.55-.71l-1.38-1.45a.49.49,0,0,1-.27.16h0l-.07-.06Zm.05-3.22A2.4,2.4,0,0,0,24,16.19a2.15,2.15,0,0,0,.67,1.63l1.4-1.44L26,16.3v0s0-.12.16-.28Zm.5-.5-.5.5L26.15,16l.45-.44ZM9.41,12.25H9l0,2h.45Zm-1,.67c0,.1,0,.22,0,.33h2c0-.12,0-.24,0-.35Zm0-.91c0,.31,0,.61,0,.91l2,0c0-.31,0-.53,0-.75Zm2.21-2.15a2.18,2.18,0,0,0-2.21,2.19l2,.06a.28.28,0,0,1,.07-.21.14.14,0,0,1,.11,0Zm2.17,2.21a2.2,2.2,0,0,0-2.18-2.21v2a.18.18,0,0,1,.11,0,.39.39,0,0,1,.07.24Zm0,.77c0-.25,0-.51,0-.77l-2,.07c0,.21,0,.42,0,.68Zm0,.41c0-.14,0-.27,0-.41l-2,0c0,.13,0,.28,0,.43Zm-.6-1h-.4v2h.42Zm.79,0H12.2l0,2h.7Zm2.2,2.18A2.19,2.19,0,0,0,13,12.26l-.07,2a.37.37,0,0,1,.23.08.14.14,0,0,1,0,.11ZM13,16.64a2.2,2.2,0,0,0,2.2-2.2h-2a.12.12,0,0,1,0,.12.31.31,0,0,1-.22.08Zm-.76,0H13l-.07-2h-.67Zm-.44,0h.44l0-2h-.46Zm1-.62v-.38h-2V16Zm0,.74c0-.25,0-.5,0-.74l-2,0c0,.25,0,.45,0,.65ZM10.63,19a2.1,2.1,0,0,0,1.57-.69,2.4,2.4,0,0,0,.59-1.6l-2,0a.48.48,0,0,1-.07.29l0,0H10.6ZM8.41,16.72A2.42,2.42,0,0,0,9,18.35a2.11,2.11,0,0,0,1.62.68l0-2h-.09s0,0,0,0-.08-.1-.08-.31Zm0-1.08V16.7h2V15.64Zm.57,1h.43v-2H9Zm-.79,0H9l0-2H8.25ZM6,14.5a2.2,2.2,0,0,0,2.16,2.14l.1-2a.36.36,0,0,1-.22-.08.13.13,0,0,1,0-.1Zm2.15-2.24A2.18,2.18,0,0,0,6,14.51l2-.07c0-.06,0-.09,0-.11s.08-.07.21-.08Zm.82,0h-.8l.06,2H9Z"/></g></g></g></svg>