<svg width="16" height="16" viewBox="0 0 16 16" fill="none" xmlns="http://www.w3.org/2000/svg">
<path fill-rule="evenodd" clip-rule="evenodd" d="M0.625 3C0.625 1.68832 1.68832 0.625 3 0.625H4.875C6.18668 0.625 7.25 1.68832 7.25 3V4.875C7.25 6.18668 6.18668 7.25 4.875 7.25H3C1.68832 7.25 0.625 6.18668 0.625 4.875V3ZM3 1.625C2.24061 1.625 1.625 2.24061 1.625 3V4.875C1.625 5.63439 2.24061 6.25 3 6.25H4.875C5.63439 6.25 6.25 5.63439 6.25 4.875V3C6.25 2.24061 5.63439 1.625 4.875 1.625H3ZM8.75 3C8.75 1.68832 9.81332 0.625 11.125 0.625H13C14.3117 0.625 15.375 1.68832 15.375 3V4.875C15.375 6.18668 14.3117 7.25 13 7.25H11.125C9.81332 7.25 8.75 6.18668 8.75 4.875V3ZM11.125 1.625C10.3656 1.625 9.75 2.24061 9.75 3V4.875C9.75 5.63439 10.3656 6.25 11.125 6.25H13C13.7594 6.25 14.375 5.63439 14.375 4.875V3C14.375 2.24061 13.7594 1.625 13 1.625H11.125ZM0.625 11.125C0.625 9.81332 1.68832 8.75 3 8.75H4.875C6.18668 8.75 7.25 9.81332 7.25 11.125V13C7.25 14.3117 6.18668 15.375 4.875 15.375H3C1.68832 15.375 0.625 14.3117 0.625 13V11.125ZM3 9.75C2.24061 9.75 1.625 10.3656 1.625 11.125V13C1.625 13.7594 2.24061 14.375 3 14.375H4.875C5.63439 14.375 6.25 13.7594 6.25 13V11.125C6.25 10.3656 5.63439 9.75 4.875 9.75H3ZM8.75 11.125C8.75 9.81332 9.81332 8.75 11.125 8.75H13C14.3117 8.75 15.375 9.81332 15.375 11.125V13C15.375 14.3117 14.3117 15.375 13 15.375H11.125C9.81332 15.375 8.75 14.3117 8.75 13V11.125ZM11.125 9.75C10.3656 9.75 9.75 10.3656 9.75 11.125V13C9.75 13.7594 10.3656 14.375 11.125 14.375H13C13.7594 14.375 14.375 13.7594 14.375 13V11.125C14.375 10.3656 13.7594 9.75 13 9.75H11.125Z" fill="#999999"/>
</svg>
