<svg xmlns="http://www.w3.org/2000/svg" xmlns:xlink="http://www.w3.org/1999/xlink" viewBox="0 0 38.61 28.8"><defs><style>.cls-1{fill:#fff;}.cls-2{fill:#e60000;}.cls-3{mask:url(#mask);}</style><mask id="mask" x="0" y="0" width="38.61" height="28.8" maskUnits="userSpaceOnUse"><g id="path-1-inside-1_184_899" data-name="path-1-inside-1 184 899"><path class="cls-1" d="M32.33,1h-26C5,1,4.65,1.37,4.65,2.64V16.41c0,1.27.38,1.64,1.62,1.64H32.33c1.25,0,1.63-.37,1.63-1.64V2.64C34,1.38,33.58,1,32.33,1ZM2.57,27.8H36.05a2.69,2.69,0,0,0,.89-.11.86.86,0,0,0,.51-1.35Q35.71,23.16,34,20h0a1.35,1.35,0,0,0-1.24-.73H5.89A1.32,1.32,0,0,0,4.66,20h0q-1.75,3.16-3.5,6.34a.86.86,0,0,0,.52,1.35A2.62,2.62,0,0,0,2.57,27.8Zm17.49-2.43H17a1.22,1.22,0,1,1,0-2.42c1.54,0,3.09,0,4.63,0a1.22,1.22,0,1,1,0,2.42Z"/></g></mask></defs><title>Ресурс 1</title><g id="Шар_2" data-name="Шар 2"><g id="Шар_1-2" data-name="Шар 1"><path class="cls-2" d="M32.33,1h-26C5,1,4.65,1.37,4.65,2.64V16.41c0,1.27.38,1.64,1.62,1.64H32.33c1.25,0,1.63-.37,1.63-1.64V2.64C34,1.38,33.58,1,32.33,1ZM2.57,27.8H36.05a2.69,2.69,0,0,0,.89-.11.86.86,0,0,0,.51-1.35Q35.71,23.16,34,20h0a1.35,1.35,0,0,0-1.24-.73H5.89A1.32,1.32,0,0,0,4.66,20h0q-1.75,3.16-3.5,6.34a.86.86,0,0,0,.52,1.35A2.62,2.62,0,0,0,2.57,27.8Zm17.49-2.43H17a1.22,1.22,0,1,1,0-2.42c1.54,0,3.09,0,4.63,0a1.22,1.22,0,1,1,0,2.42Z"/><g class="cls-3"><path class="cls-2" d="M36.94,27.69l-.32-1h0Zm.51-1.35-.88.48h0ZM34,20l.87-.48h0Zm0,0,.88-.48v0ZM4.66,20l.87.49h0Zm0,0,.87.49h0Zm-3.5,6.34.87.48H2Zm.52,1.35L2,26.75H2Zm18.38-2.32v1h0Zm-1.54,0v-1h0Zm-1.55,0,0-1h0Zm-1.33-1.19-1,0h0ZM17,22.94v1h0Zm4.63,0,0-1h0ZM23,24.13h0ZM21.6,25.36l0-1h0ZM19.33,2h13V0h-13Zm-13,0h13V0h-13Zm-.68.64a2.69,2.69,0,0,1,0-.54c0-.09,0-.08,0,0s0,0,0,0a2.37,2.37,0,0,1,.58,0V0a2.76,2.76,0,0,0-2,.63,2.66,2.66,0,0,0-.65,2Zm0,13.77V2.64h-2V16.41Zm.62.64a2.52,2.52,0,0,1-.52,0c-.09,0-.08,0,0,0s0,0,0-.05a2.77,2.77,0,0,1,0-.54h-2a2.74,2.74,0,0,0,.63,2,2.7,2.7,0,0,0,2,.64Zm26.06,0H6.27v2H32.33Zm.63-.64a2,2,0,0,1-.05.54c0,.09,0,.08,0,.05s0,0,0,0a2.72,2.72,0,0,1-.53,0v2a2.67,2.67,0,0,0,2-.64,2.75,2.75,0,0,0,.64-2ZM33,2.64V16.41h2V2.64ZM32.33,2a2,2,0,0,1,.53,0c.08,0,.07,0,0,0s0,0,0,.05a2,2,0,0,1,.05.54h2a2.75,2.75,0,0,0-.64-2,2.67,2.67,0,0,0-2-.64ZM19.24,26.8H2.57v2H19.24Zm16.81,0H19.24v2H36.05Zm.56-.05a2.24,2.24,0,0,1-.56.05v2a3.87,3.87,0,0,0,1.21-.16Zm0,.07a.33.33,0,0,1,0,.08v0a.2.2,0,0,1,0-.07l0-.05,0,0-.06,0,.64,1.9a2,2,0,0,0,1.24-1.13,2,2,0,0,0-.17-1.66Zm-3.5-6.33c1.17,2.11,2.34,4.21,3.5,6.33l1.76-1c-1.16-2.12-2.34-4.23-3.51-6.34Zm0,0h0l1.75-1h0Zm-.37-.22a.38.38,0,0,1,.22.05s.09.06.16.18l1.73-1a2.52,2.52,0,0,0-.87-.91,2.49,2.49,0,0,0-1.24-.32Zm-26.81,0H32.7v-2H5.89Zm-.35.22a.42.42,0,0,1,.14-.18.44.44,0,0,1,.21,0v-2a2.36,2.36,0,0,0-2.11,1.25Zm0,0h0l-1.74-1h0ZM2,26.82c1.16-2.12,2.33-4.22,3.5-6.33l-1.74-1Q2,22.67.28,25.86Zm0-.08-.07,0,0,0a.09.09,0,0,1,0,.05.25.25,0,0,1,0,.07v0s0,0,0-.07l-1.75-1a2,2,0,0,0-.16,1.67,2,2,0,0,0,1.24,1.12Zm.57.06A1.88,1.88,0,0,1,2,26.75l-.68,1.88a3.71,3.71,0,0,0,1.23.17Zm16.72-.44h.76v-2h-.77Zm-.76,0h.76v-2h-.77Zm-1.58,0h1.58v-2H17Zm-2.31-2.17a2.16,2.16,0,0,0,.71,1.58,2.45,2.45,0,0,0,1.6.59l0-2a.52.52,0,0,1-.31-.08.16.16,0,0,1,0-.13ZM17,21.94a2.4,2.4,0,0,0-1.66.61,2.13,2.13,0,0,0-.69,1.64l2,0a.78.78,0,0,1,0-.09l0,0a.46.46,0,0,1,.31-.08Zm4.64,0c-1.54,0-3.1,0-4.64,0v2c1.54,0,3.08,0,4.61,0ZM24,24.12a2.15,2.15,0,0,0-.7-1.58,2.43,2.43,0,0,0-1.61-.6l0,2a.5.5,0,0,1,.3.08.16.16,0,0,1,0,.13Zm-2.34,2.24a2.44,2.44,0,0,0,1.65-.61A2.13,2.13,0,0,0,24,24.12l-2,0s0,.07,0,.08a.05.05,0,0,1,0,0,.46.46,0,0,1-.33.09Zm-1.56,0h1.56l0-2H20.06Z"/></g></g></g></svg>