<svg width="18" height="16" viewBox="0 0 18 16" fill="none" xmlns="http://www.w3.org/2000/svg">
<path fill-rule="evenodd" clip-rule="evenodd" d="M8.10567 0.723551C8.43659 -0.0720755 9.56369 -0.0720759 9.89461 0.723551L11.6589 4.96547L16.2384 5.33261C17.0974 5.40147 17.4457 6.4734 16.7912 7.03399L13.3021 10.0228L14.3681 14.4916C14.5681 15.3298 13.6562 15.9923 12.9208 15.5431L9.00014 13.1484L5.07944 15.5431C4.34406 15.9923 3.43222 15.3298 3.63216 14.4916L4.69814 10.0228L1.20904 7.03399C0.55461 6.4734 0.902898 5.40147 1.76185 5.33261L6.34136 4.96547L8.10567 0.723551ZM9.00014 1.17695L7.25735 5.36713C7.11784 5.70255 6.80241 5.93172 6.4403 5.96075L1.91665 6.32341L5.36319 9.27574C5.63908 9.51207 5.75957 9.88288 5.67528 10.2362L4.6223 14.6505L8.49518 12.285C8.80519 12.0957 9.19509 12.0957 9.50511 12.285L13.378 14.6505L12.325 10.2362C12.2407 9.88288 12.3612 9.51207 12.6371 9.27574L16.0836 6.32341L11.56 5.96075C11.1979 5.93172 10.8824 5.70254 10.7429 5.36713L9.00014 1.17695Z" fill="#999999"/>
</svg>
