<svg width="18" height="17" viewBox="0 0 18 17" fill="none" xmlns="http://www.w3.org/2000/svg">
<path d="M8.30769 1.47761C6.90881 0.542504 5.24535 0 3.46154 0C2.41087 0 1.40082 0.188313 0.461599 0.534982C0.184959 0.63709 0 0.910217 0 1.21662V14.953C0 15.1876 0.109087 15.4077 0.292578 15.5432C0.476068 15.6787 0.711127 15.7128 0.923017 15.6346C1.71611 15.3419 2.57023 15.1823 3.46154 15.1823C5.30309 15.1823 6.99069 15.864 8.30769 17V1.47761Z" fill="#1A1A1A"/>
<path d="M9.69231 17C11.0093 15.864 12.6969 15.1823 14.5385 15.1823C15.4298 15.1823 16.2839 15.3419 17.077 15.6346C17.2889 15.7128 17.5239 15.6787 17.7074 15.5432C17.8909 15.4077 18 15.1876 18 14.953V1.21662C18 0.910217 17.815 0.63709 17.5384 0.534982C16.5992 0.188313 15.5891 0 14.5385 0C12.7547 0 11.0912 0.542504 9.69231 1.47761V17Z" fill="#1A1A1A"/>
</svg>
