<svg xmlns="http://www.w3.org/2000/svg" viewBox="0 0 19.65 36.01"><defs><style>.cls-1{fill:#e60000;}</style></defs><title>Ресурс 1</title><g id="Шар_2" data-name="Шар 2"><g id="Шар_1-2" data-name="Шар 1"><path class="cls-1" d="M0,18C0,13.35,0,8.7,0,4.06A3.78,3.78,0,0,1,2.67.2,3.87,3.87,0,0,1,3.94,0H15.7a3.83,3.83,0,0,1,3.95,3.93q0,14.07,0,28.12A3.83,3.83,0,0,1,15.71,36H4.07A3.83,3.83,0,0,1,0,32C0,27.3,0,22.65,0,18ZM9.83,3.27H7.53c-.61,0-1,.29-1,.79a.79.79,0,0,0,.89.85q2.35,0,4.71,0a.86.86,0,0,0,.92-.85c0-.48-.39-.79-1-.79Zm0,26.21a1.62,1.62,0,0,0-1.64,1.63,1.65,1.65,0,0,0,1.66,1.62,1.63,1.63,0,0,0,1.59-1.62A1.57,1.57,0,0,0,9.83,29.48Z"/></g></g></svg>