<svg width="20" height="20" viewBox="0 0 20 20" fill="none" xmlns="http://www.w3.org/2000/svg">
<path fill-rule="evenodd" clip-rule="evenodd" d="M10.25 0.25C4.86522 0.25 0.5 4.61522 0.5 10C0.5 15.3848 4.86522 19.75 10.25 19.75C15.6348 19.75 20 15.3848 20 10C20 4.61522 15.6348 0.25 10.25 0.25ZM11 4C11 3.58579 10.6642 3.25 10.25 3.25C9.83579 3.25 9.5 3.58579 9.5 4V10C9.5 10.4142 9.83579 10.75 10.25 10.75H14.75C15.1642 10.75 15.5 10.4142 15.5 10C15.5 9.58579 15.1642 9.25 14.75 9.25H11V4Z" fill="#999999"/>
</svg>
