<svg width="40" height="40" viewBox="0 0 40 40" fill="none" xmlns="http://www.w3.org/2000/svg">
<path d="M10.5106 16.6692C11.2892 16.6692 11.9705 15.988 11.9705 15.2094C11.9705 14.4308 11.2892 13.7495 10.5106 13.7495C9.73205 13.7495 9.05078 14.4308 9.05078 15.2094C9.05078 15.988 9.73205 16.6692 10.5106 16.6692Z" fill="#2B2929"/>
<path d="M10.5106 25.3308C11.2892 25.3308 11.9705 24.6496 11.9705 23.871C11.9705 23.0924 11.2892 22.4111 10.5106 22.4111C9.73205 22.4111 9.05078 23.0924 9.05078 23.871C9.05078 24.6496 9.73205 25.3308 10.5106 25.3308Z" fill="#2B2929"/>
<path d="M29.3915 16.6692C30.1701 16.6692 30.8513 15.988 30.8513 15.2094C30.8513 14.4308 30.1701 13.7495 29.3915 13.7495C28.6129 13.7495 27.9316 14.4308 27.9316 15.2094C27.9316 15.988 28.6129 16.6692 29.3915 16.6692Z" fill="#2B2929"/>
<path d="M39.9027 2.07056C39.9027 1.48662 39.4161 1 38.8321 1H1.07056C0.486618 1 0 1.48662 0 2.07056V10.7324V10.8297V28.3479C0 28.9319 0.486618 29.4185 1.07056 29.4185H7.0073L5.45012 38.4696C5.45012 38.7616 5.45012 39.0535 5.64477 39.2482C5.83942 39.4428 6.03406 39.6375 6.32603 39.6375H6.52068C7.0073 39.6375 7.49392 39.2482 7.59124 38.7616L9.14842 29.3212H30.8516L32.4088 38.7616C32.5061 39.2482 32.8954 39.6375 33.4793 39.6375H33.674C34.2579 39.5401 34.6472 38.9562 34.5499 38.4696L32.9927 29.4185H38.9294C39.5134 29.4185 40 28.9319 40 28.3479V10.927V10.8297L39.9027 2.07056ZM37.8589 20.6594V27.2774H21.0219V20.6594H37.8589ZM37.8589 11.9002V18.5182H21.0219V11.9002H37.8589ZM37.8589 3.0438V9.6618H21.0219V3.0438H37.8589ZM18.8808 20.6594V27.2774H2.0438V20.6594H18.8808ZM18.8808 11.9002V18.5182H2.0438V11.9002H18.8808ZM18.8808 3.0438V9.6618H2.0438V3.0438H18.8808Z" fill="#2B2929"/>
<path d="M10.5106 7.81253C11.2892 7.81253 11.9705 7.13127 11.9705 6.35268C11.9705 5.57409 11.2892 4.89282 10.5106 4.89282C9.73205 4.89282 9.05078 5.57409 9.05078 6.35268C9.05078 7.13127 9.73205 7.81253 10.5106 7.81253Z" fill="#2B2929"/>
<path d="M29.3915 7.81262C30.1701 7.81262 30.8513 7.13135 30.8513 6.35276C30.8513 5.57418 30.1701 4.99023 29.3915 4.99023C28.6129 4.99023 27.9316 5.6715 27.9316 6.45009C27.9316 7.22868 28.6129 7.81262 29.3915 7.81262Z" fill="#2B2929"/>
<path d="M29.3915 25.3308C30.1701 25.3308 30.8513 24.6496 30.8513 23.871C30.8513 23.0924 30.1701 22.4111 29.3915 22.4111C28.6129 22.4111 27.9316 23.0924 27.9316 23.871C27.9316 24.6496 28.6129 25.3308 29.3915 25.3308Z" fill="#2B2929"/>
</svg>
