<svg width="34" height="34" viewBox="0 0 34 34" fill="none" xmlns="http://www.w3.org/2000/svg">
<path d="M15.8154 22.4835C15.7437 22.5627 15.6769 22.6462 15.6154 22.7335C15.5523 22.8264 15.5019 22.9273 15.4654 23.0335C15.4173 23.128 15.3836 23.2291 15.3654 23.3335C15.3572 23.4445 15.3572 23.5559 15.3654 23.6668C15.3597 23.8855 15.4054 24.1024 15.4987 24.3002C15.5736 24.507 15.693 24.6948 15.8485 24.8504C16.004 25.0059 16.1919 25.1253 16.3987 25.2002C16.5982 25.2883 16.8139 25.3339 17.032 25.3339C17.2502 25.3339 17.4659 25.2883 17.6654 25.2002C17.8722 25.1253 18.06 25.0059 18.2156 24.8504C18.3711 24.6948 18.4905 24.507 18.5654 24.3002C18.6394 24.0975 18.6733 23.8824 18.6654 23.6668C18.6666 23.4475 18.6246 23.23 18.5417 23.027C18.4587 22.8239 18.3365 22.6392 18.182 22.4835C18.0271 22.3273 17.8428 22.2033 17.6397 22.1187C17.4366 22.0341 17.2187 21.9905 16.9987 21.9905C16.7787 21.9905 16.5608 22.0341 16.3577 22.1187C16.1546 22.2033 15.9703 22.3273 15.8154 22.4835ZM16.9987 0.333496C13.7024 0.333496 10.48 1.31098 7.7392 3.14234C4.99838 4.97369 2.86217 7.57667 1.60071 10.6221C0.339253 13.6675 0.00919709 17.0187 0.652284 20.2517C1.29537 23.4847 2.88272 26.4544 5.21359 28.7853C7.54447 31.1162 10.5142 32.7035 13.7472 33.3466C16.9802 33.9897 20.3313 33.6596 23.3768 32.3982C26.4222 31.1367 29.0252 29.0005 30.8565 26.2597C32.6879 23.5188 33.6654 20.2965 33.6654 17.0002C33.6654 14.8115 33.2343 12.6442 32.3967 10.6221C31.5591 8.60001 30.3315 6.76269 28.7838 5.21505C27.2362 3.66741 25.3989 2.43975 23.3768 1.60217C21.3547 0.764592 19.1874 0.333496 16.9987 0.333496ZM16.9987 30.3335C14.3616 30.3335 11.7838 29.5515 9.5911 28.0864C7.39845 26.6213 5.68948 24.539 4.68031 22.1026C3.67114 19.6663 3.4071 16.9854 3.92157 14.399C4.43604 11.8125 5.70591 9.43677 7.57061 7.57207C9.43532 5.70737 11.8111 4.4375 14.3975 3.92303C16.9839 3.40856 19.6648 3.6726 22.1012 4.68177C24.5375 5.69094 26.6199 7.3999 28.085 9.59256C29.55 11.7852 30.332 14.3631 30.332 17.0002C30.332 20.5364 28.9273 23.9278 26.4268 26.4283C23.9263 28.9287 20.5349 30.3335 16.9987 30.3335ZM16.9987 8.66683C16.1205 8.66627 15.2576 8.89703 14.4969 9.3359C13.7362 9.77477 13.1045 10.4063 12.6654 11.1668C12.5448 11.3565 12.4638 11.5687 12.4273 11.7905C12.3908 12.0123 12.3996 12.2391 12.4531 12.4575C12.5066 12.6758 12.6037 12.8811 12.7385 13.0609C12.8734 13.2407 13.0432 13.3914 13.2378 13.5039C13.4324 13.6164 13.6478 13.6884 13.8709 13.7155C14.0941 13.7426 14.3204 13.7243 14.5363 13.6616C14.7521 13.599 14.9531 13.4933 15.1271 13.351C15.3011 13.2087 15.4445 13.0327 15.5487 12.8335C15.6955 12.5792 15.907 12.3681 16.1616 12.2218C16.4162 12.0755 16.705 11.999 16.9987 12.0002C17.4407 12.0002 17.8647 12.1758 18.1772 12.4883C18.4898 12.8009 18.6654 13.2248 18.6654 13.6668C18.6654 14.1089 18.4898 14.5328 18.1772 14.8453C17.8647 15.1579 17.4407 15.3335 16.9987 15.3335C16.5567 15.3335 16.1328 15.5091 15.8202 15.8217C15.5076 16.1342 15.332 16.5581 15.332 17.0002V18.6668C15.332 19.1089 15.5076 19.5328 15.8202 19.8453C16.1328 20.1579 16.5567 20.3335 16.9987 20.3335C17.4407 20.3335 17.8647 20.1579 18.1772 19.8453C18.4898 19.5328 18.6654 19.1089 18.6654 18.6668V18.3668C19.7677 17.9669 20.6943 17.1922 21.2833 16.1783C21.8723 15.1643 22.0863 13.9756 21.8877 12.82C21.6891 11.6643 21.0907 10.6152 20.197 9.85602C19.3033 9.09685 18.1713 8.67593 16.9987 8.66683Z" fill="#FFBC57"/>
</svg>
