<svg width="21" height="20" viewBox="0 0 21 20" fill="none" xmlns="http://www.w3.org/2000/svg">
<path d="M20.2101 2.72006L17.7801 0.29006C17.5928 0.103809 17.3393 -0.000732422 17.0751 -0.000732422C16.811 -0.000732422 16.5575 0.103809 16.3701 0.29006L10.7901 5.87006C10.6975 5.9635 10.6241 6.07432 10.5744 6.19615C10.5246 6.31799 10.4994 6.44845 10.5001 6.58006V9.00006C10.5001 9.26528 10.6055 9.51963 10.793 9.70717C10.9806 9.8947 11.2349 10.0001 11.5001 10.0001H13.9201C14.0517 10.0008 14.1822 9.9756 14.304 9.92583C14.4259 9.87607 14.5367 9.80274 14.6301 9.71006L20.2101 4.13006C20.3964 3.9427 20.5009 3.68925 20.5009 3.42506C20.5009 3.16087 20.3964 2.90742 20.2101 2.72006ZM13.5001 8.00006H12.5001V7.00006L17.0801 2.42006L18.0801 3.42006L13.5001 8.00006ZM17.5001 10.0001C17.2349 10.0001 16.9806 10.1054 16.793 10.293C16.6055 10.4805 16.5001 10.7348 16.5001 11.0001C16.5001 12.8566 15.7626 14.6371 14.4499 15.9498C13.1371 17.2626 11.3567 18.0001 9.50014 18.0001H3.91014L4.55014 17.3701C4.64387 17.2771 4.71826 17.1665 4.76903 17.0446C4.8198 16.9228 4.84594 16.7921 4.84594 16.6601C4.84594 16.528 4.8198 16.3973 4.76903 16.2755C4.71826 16.1536 4.64387 16.043 4.55014 15.9501C3.57107 14.9711 2.9043 13.7238 2.63417 12.3658C2.36403 11.0079 2.50265 9.60035 3.03251 8.32121C3.56236 7.04206 4.45965 5.94878 5.61088 5.17961C6.76212 4.41045 8.1156 3.99996 9.50014 4.00006C9.76536 4.00006 10.0197 3.8947 10.2072 3.70717C10.3948 3.51963 10.5001 3.26528 10.5001 3.00006C10.5001 2.73484 10.3948 2.48049 10.2072 2.29295C10.0197 2.10542 9.76536 2.00006 9.50014 2.00006C7.8076 2.00562 6.15094 2.48834 4.72033 3.3928C3.28971 4.29726 2.14313 5.58679 1.41221 7.11338C0.681286 8.63996 0.395648 10.3417 0.588084 12.0233C0.78052 13.7048 1.44323 15.2981 2.50014 16.6201L0.790139 18.2901C0.651382 18.4307 0.557386 18.6093 0.520011 18.8032C0.482637 18.9972 0.50356 19.1979 0.580139 19.3801C0.65516 19.5627 0.782557 19.719 0.946278 19.8293C1.11 19.9397 1.30271 19.9991 1.50014 20.0001H9.50014C10.682 20.0001 11.8524 19.7673 12.9443 19.315C14.0362 18.8627 15.0284 18.1997 15.8641 17.364C16.6998 16.5283 17.3628 15.5361 17.8151 14.4442C18.2673 13.3523 18.5001 12.182 18.5001 11.0001C18.5001 10.7348 18.3948 10.4805 18.2072 10.293C18.0197 10.1054 17.7654 10.0001 17.5001 10.0001Z" fill="white"/>
</svg>
