<svg id="Шар_1" data-name="Шар 1" xmlns="http://www.w3.org/2000/svg" viewBox="0 0 182.39 54.56"><defs><style>.cls-1{font-size:26.86px;fill:#fff;font-family:BookmanOldStyle-Bold, Bookman Old Style;font-weight:700;}.cls-2{fill:#f9b233;}</style></defs><title>book-logo</title><text class="cls-1" transform="translate(56.15 35.85)">EA’DERS</text><path class="cls-2" d="M34.66,33.86h-6V17.27a24.17,24.17,0,0,1,5.8-.54c6.21.07,10.46,2.63,10.46,8.5C44.91,30.42,40.93,33.86,34.66,33.86Z" transform="translate(-7.25 -3.45)"/><path class="cls-2" d="M43.29,47.15c.83,3.69,1.55,6.63,2.15,8.59a27.35,27.35,0,0,1-16.79,1.63v-19h5.53C39.51,38.52,41.94,40.88,43.29,47.15Z" transform="translate(-7.25 -3.45)"/><path class="cls-2" d="M61.81,30.73a27.23,27.23,0,0,1-11.17,22c-.52-2-1.09-4.4-1.75-7.21-1.08-4.72-3.17-8-6.68-9.17v-.2c4.79-1.62,8.57-5.6,8.57-11.6a11.34,11.34,0,0,0-3.58-8.64c-2.83-2.56-6.88-3.71-13.15-3.71a60.89,60.89,0,0,0-11.27.95V55.35a27.28,27.28,0,1,1,39-24.62Z" transform="translate(-7.25 -3.45)"/></svg>