<svg id="Шар_1" data-name="Шар 1" xmlns="http://www.w3.org/2000/svg" xmlns:xlink="http://www.w3.org/1999/xlink" viewBox="0 0 114.4 32.45"><defs><style>.cls-1{fill:url(#Ѕезым_нный_градиент_3);}.cls-2{fill:#f3a924;}</style><linearGradient id="Ѕезым_нный_градиент_3" x1="-0.57" y1="4.14" x2="26.19" y2="30.9" gradientUnits="userSpaceOnUse"><stop offset="0" stop-color="#fcc556"/><stop offset="0.71" stop-color="#e79b37"/><stop offset="0.77" stop-color="#fecf72"/><stop offset="0.83" stop-color="#e79b37"/><stop offset="1" stop-color="#bd6c15"/></linearGradient></defs><title>book-nook</title><path class="cls-1" d="M2.8,33.22v-.54a5.9,5.9,0,0,0,1.93-.39A3.61,3.61,0,0,0,6,31.3a4.06,4.06,0,0,0,.89-1.93,20.72,20.72,0,0,0,.23-3.61V8.24a20.72,20.72,0,0,0-.23-3.61A4.06,4.06,0,0,0,6,2.7a3.28,3.28,0,0,0-1.3-1A6.32,6.32,0,0,0,2.8,1.32V.78H16.38c1.38,0,2.28,0,2.71,0A8,8,0,0,1,23,2.11,6.25,6.25,0,0,1,25.07,4.6a8,8,0,0,1,.74,3.47,7.65,7.65,0,0,1-1.68,5.11,5.64,5.64,0,0,1-1.36,1.23,15.45,15.45,0,0,1-2.22,1.08,16.34,16.34,0,0,1,3.08.83,6.71,6.71,0,0,1,2,1.26,8.47,8.47,0,0,1,2.06,3.08,10.87,10.87,0,0,1,.73,4,10.2,10.2,0,0,1-.75,4,7.39,7.39,0,0,1-2.1,2.89,7,7,0,0,1-2.91,1.35,22.27,22.27,0,0,1-4.74.38ZM11.67,1.51V15.63h1.67a15.9,15.9,0,0,0,2.44-.19A8.67,8.67,0,0,0,17.55,15a4.74,4.74,0,0,0,1.23-.71A5.92,5.92,0,0,0,20.4,12,8.27,8.27,0,0,0,21,8.83a10.09,10.09,0,0,0-.59-3.43,6.21,6.21,0,0,0-1.56-2.53A4.45,4.45,0,0,0,16.89,1.8a14.07,14.07,0,0,0-3.3-.29Zm0,14.86v9.79A15.87,15.87,0,0,0,11.88,29a5.26,5.26,0,0,0,.72,1.85,4,4,0,0,0,3.61,1.6,6.81,6.81,0,0,0,5.26-2.09,8.1,8.1,0,0,0,1.94-5.71,11.89,11.89,0,0,0-.6-3.84,6.55,6.55,0,0,0-1.61-2.72C20,17,18,16.37,15.37,16.37Z" transform="translate(-2.8 -0.78)"/><path class="cls-2" d="M41.67,27.49c0,3.75-2.28,5.73-5.05,5.73s-4.9-2.22-4.9-5.52S33.87,22,36.78,22,41.67,24.26,41.67,27.49Zm-8.44.18c0,2.32,1.26,4.41,3.47,4.41s3.49-2,3.49-4.52c0-2.17-1.14-4.43-3.48-4.43S33.23,25.28,33.23,27.67Z" transform="translate(-2.8 -0.78)"/><path class="cls-2" d="M55,27.49c0,3.75-2.28,5.73-5.06,5.73S45.06,31,45.06,27.7s2.15-5.71,5-5.71S55,24.26,55,27.49Zm-8.45.18c0,2.32,1.26,4.41,3.47,4.41s3.49-2,3.49-4.52c0-2.17-1.13-4.43-3.47-4.43S46.56,25.28,46.56,27.67Z" transform="translate(-2.8 -0.78)"/><path class="cls-2" d="M59,22.16h1.41v5.25h0c.29-.42.58-.81.85-1.16l3.33-4.09h1.74l-3.94,4.62,4.25,6.27H65.07L61.48,27.7l-1,1.2v4.15H59Z" transform="translate(-2.8 -0.78)"/><path class="cls-2" d="M70,33.05V22.16h1.53L75,27.67a29.29,29.29,0,0,1,2,3.54l0,0c-.12-1.45-.16-2.78-.16-4.47V22.16h1.33V33.05H76.76L73.3,27.52a34.2,34.2,0,0,1-2-3.63l0,0c.08,1.37.11,2.68.11,4.49v4.65Z" transform="translate(-2.8 -0.78)"/><path class="cls-2" d="M92.14,27.49c0,3.75-2.27,5.73-5,5.73S82.2,31,82.2,27.7s2.14-5.71,5-5.71S92.14,24.26,92.14,27.49Zm-8.44.18c0,2.32,1.26,4.41,3.47,4.41s3.49-2,3.49-4.52c0-2.17-1.13-4.43-3.47-4.43S83.7,25.28,83.7,27.67Z" transform="translate(-2.8 -0.78)"/><path class="cls-2" d="M105.48,27.49c0,3.75-2.28,5.73-5,5.73s-4.9-2.22-4.9-5.52S97.68,22,100.59,22,105.48,24.26,105.48,27.49ZM97,27.67c0,2.32,1.25,4.41,3.47,4.41S104,30,104,27.56c0-2.17-1.13-4.43-3.47-4.43S97,25.28,97,27.67Z" transform="translate(-2.8 -0.78)"/><path class="cls-2" d="M109.52,22.16h1.4v5.25h0c.29-.42.58-.81.86-1.16l3.32-4.09h1.75L113,26.78l4.24,6.27h-1.66L112,27.7l-1,1.2v4.15h-1.4Z" transform="translate(-2.8 -0.78)"/></svg>