<svg width="58" height="33" viewBox="0 0 58 33" fill="none" xmlns="http://www.w3.org/2000/svg">
<g clip-path="url(#clip0_211_9815)">
<path d="M6.01639 11.1197V31.5058C6.01639 32.0618 5.64394 32.4325 5.08527 32.4325H1.3608C0.802134 32.4325 0.429688 32.0618 0.429688 31.5058V11.1197C0.429688 10.5637 0.802134 10.1931 1.3608 10.1931H5.08527C5.64394 10.1931 6.01639 10.6564 6.01639 11.1197ZM56.6414 10.1931H52.917C52.3583 10.1931 51.9858 10.5637 51.9858 11.1197V31.5058C51.9858 32.0618 52.3583 32.4325 52.917 32.4325H56.6414C57.2001 32.4325 57.5725 32.0618 57.5725 31.5058V11.1197C57.5725 10.6564 57.2001 10.1931 56.6414 10.1931Z" fill="#FFBC57"/>
<path d="M50.1239 16.6795V22.2394C50.1239 22.7954 49.7515 23.166 49.1928 23.166H8.81002C8.25135 23.166 7.87891 22.7954 7.87891 22.2394V16.6795C7.87891 16.1236 8.25135 15.7529 8.81002 15.7529H49.1928C49.7515 15.7529 50.1239 16.1236 50.1239 16.6795ZM8.81002 13.8996H19.788C20.3466 13.8996 20.7191 13.529 20.7191 12.973V0.926641C20.7191 0.370656 20.3466 0 19.788 0H8.81002C8.25135 0 7.87891 0.370656 7.87891 0.926641V12.973C7.87891 13.529 8.25135 13.8996 8.81002 13.8996ZM23.5124 13.8996H34.4904C35.049 13.8996 35.4215 13.529 35.4215 12.973V0.926641C35.4215 0.370656 35.049 0 34.4904 0H23.5124C22.9538 0 22.5813 0.370656 22.5813 0.926641V12.973C22.5813 13.529 22.9538 13.8996 23.5124 13.8996ZM49.1928 0H38.2148C37.6562 0 37.2837 0.370656 37.2837 0.926641V12.973C37.2837 13.529 37.6562 13.8996 38.2148 13.8996H49.1928C49.7515 13.8996 50.1239 13.529 50.1239 12.973V0.926641C50.1239 0.370656 49.7515 0 49.1928 0ZM49.1928 25.0193H8.81002C8.25135 25.0193 7.87891 25.39 7.87891 25.9459V31.5058C7.87891 32.0618 8.25135 32.4324 8.81002 32.4324H14.2013C14.7599 32.4324 15.1324 32.0618 15.1324 31.5058V30.5791H42.8704V31.5058C42.8704 32.0618 43.2429 32.4324 43.8015 32.4324H49.1928C49.7515 32.4324 50.1239 32.0618 50.1239 31.5058V25.9459C50.1239 25.39 49.7515 25.0193 49.1928 25.0193Z" fill="#FFBC57"/>
</g>
<defs>
<clipPath id="clip0_211_9815">
<rect width="57.1429" height="32.4324" fill="white" transform="translate(0.429688)"/>
</clipPath>
</defs>
</svg>
